<?xml version="1.0" standalone="no"?>
<!DOCTYPE svg PUBLIC "-//W3C//DTD SVG 1.1//EN" "http://www.w3.org/Graphics/SVG/1.1/DTD/svg11.dtd" >
<svg xmlns="http://www.w3.org/2000/svg" xmlns:xlink="http://www.w3.org/1999/xlink" version="1.1">
<metadata>
Created by FontForge 20230101 at Tue Nov 19 07:20:27 2013
 By Unknown
</metadata>
<defs>
<font id="LHFUnlovable" horiz-adv-x="411" >
  <font-face 
    font-family="LHF Unlovable"
    font-weight="400"
    font-stretch="normal"
    units-per-em="1100"
    panose-1="2 0 0 0 0 0 0 0 0 0"
    ascent="825"
    descent="-275"
    x-height="573"
    cap-height="928"
    bbox="-564.065 -412.188 1087 1170.25"
    underline-thickness="55"
    underline-position="-110"
    unicode-range="U+0020-017E"
  />
<missing-glyph horiz-adv-x="605" 
 />
    <glyph glyph-name=".notdef" horiz-adv-x="605" 
 />
    <glyph glyph-name=".null" horiz-adv-x="0" 
 />
    <glyph glyph-name="nonmarkingreturn" horiz-adv-x="605" 
 />
    <glyph glyph-name="space" unicode=" " horiz-adv-x="605" 
 />
    <glyph glyph-name="space" unicode="&#xa0;" horiz-adv-x="605" 
 />
    <glyph glyph-name="space" unicode="&#xa0;" horiz-adv-x="605" 
 />
    <glyph glyph-name="exclam" unicode="!" horiz-adv-x="329" 
d="M175 -83q11 25 29 43.5t42 41.5q-18 13 -35.5 31.5t-30.5 46.5q-18 -28 -36.5 -46t-41.5 -32q25 -23 43 -39.5t30 -45.5zM226 690l1 -219q0 -7 -0.5 -14t-2.5 -14l-38 -292q-2 -21 -10.5 -24t-10.5 13l-40 284q-1 6 -1 12.5v13.5v200q0 35 -9 48t-28 19q-5 0 -5 5
q0 3 4 5q31 16 54.5 17t43.5 3q1 -107 2 -211.5t1 -211.5q0 -4 5 -4t5 4q0 107 -1.5 212t-1.5 212q21 3 35 20h3q1 -1 1 -3q-5 -20 -6 -38.5t-1 -36.5z" />
    <glyph glyph-name="quotedbl" unicode="&#x22;" horiz-adv-x="440" 
d="M284 539q4 53 5 86t-16 58q-9 9 -18 16.5t-20 17.5q26 15 44.5 34t38.5 48q13 -29 32 -48t37 -34q-20 -23 -32.5 -44t-23 -42t-21.5 -43.5t-26 -48.5zM101 551q5 53 6 86t-17 58q-9 9 -17.5 16.5t-19.5 17.5q25 15 44 34t38 48q13 -29 32 -48t38 -34q-20 -23 -33 -44
t-23 -41.5t-21 -43.5t-27 -49z" />
    <glyph glyph-name="numbersign" unicode="#" horiz-adv-x="990" 
d="M860 0q-17 -18 -30.5 -31.5t-22.5 -29.5q-8 20 -21.5 31.5t-30.5 29.5q16 9 29.5 22t28.5 34q9 -21 21 -34t26 -22zM800 718q0 -32 -13.5 -62t-33.5 -56t-46 -43.5t-53 -23.5q-16 -3 -30.5 -4t-26.5 1q-4 0 -7 -1q-4 -3 -4 -8l-4 -569q0 -5 -3 -5q-6 -2 -6 2l-153 278
l-9 -21q0 -2 -3 -2q-1 0 -3 2q-17 59 -38 106.5t-43.5 87t-46.5 72.5t-48 65l26 -451q0 -6 4 -8.5t9 -2.5q16 0 29 -4t23 -15q2 -1 2 -5q-2 -4 -4 -4q-31 -5 -56 -38.5t-53.5 -74.5t-64 -77.5t-86.5 -50.5l-1 -1q-20 -5 -38 -5.5t-38 0.5q-37 3 -70.5 16t-57.5 42
q-8 10 -13.5 21.5t-7.5 23.5q-5 29 8.5 51t35.5 29q22 9 40.5 -1t27.5 -25q8 -13 2.5 -22.5t-15.5 -18.5q-3 -1 -3 -1.5t-1 -1.5l-1 -1q-3 -3 -6 0q-3 4 1 7l3 3q11 9 14.5 15.5t-2.5 15.5q-8 13 -23.5 20.5t-34.5 1.5t-30.5 -25t-7.5 -46q3 -10 7 -20.5t12 -18.5
q12 -15 28 -25.5t32.5 -17.5t32.5 -10t29 -3q16 0 35 3t34 11q39 21 69.5 67t50.5 101.5t30 113.5t10 103l6 317q0 17 -9 34t-23 29.5t-31 20t-33 7.5q-19 0 -35.5 -7t-28.5 -18t-19.5 -24.5t-7.5 -24.5q0 -12 7.5 -24.5t20.5 -21t30.5 -8.5t35.5 15v-7q-12 -6 -22.5 -11.5
t-30.5 -5.5q-23 0 -39.5 15.5t-16.5 47.5q0 39 27.5 63.5t74.5 35.5q39 9 77 2t84 -27q2 -1 3.5 -1t2.5 -1q1 -9 2 -18.5t3 -18.5q3 -16 2.5 -33.5t-0.5 -33.5q0 -4 5 -4t5 4v53v6q6 -4 6 3q1 20 -8 42h3q8 2 14.5 3t14.5 2q10 0 19 -5t13 -13q33 -66 61.5 -121t57.5 -96
q1 -6 6 -3q4 0 6 3q2 2 2.5 5t2.5 5q0 3 5 3q2 0 3 -3q6 -10 6 -24.5v-29.5q0 -3 3.5 -14t10 -24.5t14.5 -27.5t17 -25q2 -4 4 -1q2 0 2 3v274q0 6 -8 8q-24 3 -48 14.5t-53 28.5q-2 3 -2 4q0 2 2 4q26 19 42 37t34 43q2 3 5 3t5 -4q15 -35 39 -54t73 -19q26 0 49 12
t40.5 30.5t28 41t10.5 43.5q0 20 -8.5 36t-21 27t-28 16.5t-29.5 5.5q-33 0 -56.5 -15t-26.5 -49q0 -12 8 -19.5t20 -16.5q5 -4 3.5 -10t-10.5 -3q-18 4 -28 18t-9 32q0 30 21.5 53.5t76.5 23.5q20 0 39 -5.5t34.5 -17.5t25 -30t9.5 -45zM635 562q-4 6 -6.5 12.5t-2.5 11.5
t-4.5 5t-3.5 -5q0 -14 9 -29q2 -4 6 -1.5t2 6.5zM939 189q-29 -15 -53.5 -29t-45 -29t-40.5 -33t-41 -39q-3 -3 -9 -1q-35 19 -55 46t-20 65v149q0 32 -15 52q-2 6 1 10q8 5 12.5 10.5t2.5 16.5q-1 23 -3.5 42.5t-12.5 36.5q-1 1 -1 3.5t2 3.5l12 8q1 1 3 -2q6 -8 24 -12
q1 0 4 4q2 1 2 3v8l132 51q19 8 42 -9q0 -16 -0.5 -32t-2.5 -33q-2 -19 0 -35.5t14 -34.5q2 -4 5.5 -2t1.5 6q-14 20 -12.5 38t3.5 41q1 12 1.5 23t0.5 23q12 -12 21.5 -29t9.5 -44v-58q1 -8 3 -14.5t10 -10.5q4 -2 2 -8q-15 -42 -14 -84t16 -101zM860 174q-11 8 -19.5 17
t-6.5 18l6 101q0 20 -3.5 35t-15.5 22q-3 3 -3 6q0 4 3 5q6 6 11.5 12.5t4.5 17.5q-1 9 -1 20v38q-1 14 -6 25.5t-14 13.5q-18 1 -38 1.5t-28 -3.5q-1 0 -1 -2t1 -2q7 -2 12 -8.5t5 -9.5l-1 -57q-3 -17 3.5 -28.5t14.5 -19.5q3 -2 3 -4q0 -3 -3 -6q-8 -7 -15 -17.5t-7 -31.5
l4 -119q0 -15 7 -27t17 -18q1 -6 1 -11.5v-10.5q0 -4 4.5 -4t4.5 4v7.5t-1 8.5q17 -7 26 -1z" />
    <glyph glyph-name="dollar" unicode="$" horiz-adv-x="552" 
d="M483 528q-2 -11 -2.5 -21t5.5 -16q-2 -27 -14 -45.5t-31 -30.5q-5 0 -9 -1t-11 -10q-2 -1 -5 -1.5t-6 -3.5q-7 3 -15.5 5.5t-10.5 -8.5q0 -2 1 -3q-20 -4 -37 -4q-29 0 -45 9t-25 23v-109q22 -19 42.5 -40t35.5 -45q-1 -1 0 -3q3 -5 2.5 -10t5.5 -8q5 -2 6.5 -6.5
l3.5 -10.5q9 -24 9 -53q0 -56 -30.5 -80t-75.5 -25v-85q-3 -3 -4 -8h-5q-2 5 -3.5 8.5t-2.5 8.5v77q-32 5 -58 29t-26 57l8 3q7 -36 24 -52.5t52 -18.5l1 162q-29 27 -63.5 52.5t-64 57t-50 70.5t-20.5 90q0 45 23.5 80.5t61.5 57.5l2 -1q5 -1 9 0.5t5 8.5l-1 1q15 8 29 12
q0 -1 1 -2q10 -3 17 -2q5 0 5 4q1 4 -2 7q23 4 46 6v60v14q0 6 0.5 10.5t0.5 5.5v35q0 2 2 4v1h15v-6q4 -2 4 -5v-106q0 -2 -4 -5v-8h11q4 -7 10 -7q8 -1 16 4q17 -2 34 -6v-2q1 -2 2 -2.5t3 -2.5q4 -1 6 3q3 -2 6.5 -2.5t6.5 -2.5q0 -2 2 -2q6 -3 9.5 -4.5t9.5 -2.5h1
q32 -17 55 -41.5t32 -57.5zM264 473q-1 39 -1.5 78t-0.5 77q-61 -4 -94.5 -39.5t-33.5 -89.5q0 -26 11 -49t29.5 -44t41.5 -41t47 -39zM321 109q0 25 -12 46.5t-32 41.5v-147q19 2 31.5 18t12.5 41zM337 403q16 0 29.5 8t22.5 22.5t14 32t5 37.5q0 52 -35 88t-94 37l-1 -197
q29 -28 59 -28z" />
    <glyph glyph-name="ampersand" unicode="&#x26;" horiz-adv-x="916" 
d="M785 631q18 0 38.5 -2.5t41.5 -19.5q-1 -12 -11 -15q-18 14 -35.5 16t-35.5 2q-65 0 -108.5 -37.5t-76.5 -93.5q31 6 59 -2q1 -6 5.5 -8t8.5 2q25 -11 41.5 -33.5t25.5 -54.5q-2 -5 -1.5 -12.5t2.5 -12.5q2 -4 5 -1q1 -8 1.5 -16.5t0.5 -16.5q0 -55 -19 -104.5t-52 -90
t-77 -69.5t-93 -46q0 -28 0.5 -50.5t0.5 -39.5v-34h-18v120q-42 -12 -86 -12q-74 0 -138 11.5t-111 39.5t-74 73.5t-27 113.5q0 38 12 72.5t32.5 64t48.5 53t61 41.5q-10 18 -16 39.5t-6 48.5q0 31 17.5 64t46.5 62t65.5 50.5t73.5 31.5q1 -11 -0.5 -21t0.5 -21
q1 -6 2.5 -12t1.5 -11v-26q0 -2 2.5 -2t2.5 2v26q0 5 -1 10.5t-2 11.5t-0.5 12t0.5 12v10t-1 11q25 5 44 5q8 0 17.5 -2.5t9.5 -9.5q0 -62 25 -97v16t3 15q3 12 10 23.5t17 18.5q14 9 23 10.5t18 1.5q25 0 42 -18q7 -8 10.5 -18t5.5 -20q2 -9 1.5 -19t-2.5 -19
q-13 -41 -43.5 -63t-67.5 -32q-1 -29 -1 -58v-59v-101q6 12 12 24.5t13 25.5q22 44 45.5 87t53.5 77.5t67.5 55t87.5 20.5h2zM507 690q-2 -9 -2 -20.5v-23.5q12 -10 24.5 -13.5t23.5 -3.5q17 0 32.5 15.5t15.5 36.5q0 9 -2.5 17.5t-11.5 17.5q-10 13 -30 13
q-18 0 -31.5 -10.5t-18.5 -28.5zM116 319q0 2 -3 2t-3 -2v-167q0 -2 3 -2t3 2v167zM329 711q-25 -25 -33.5 -43t-8.5 -49q0 -25 13 -43.5t33.5 -36t44.5 -33.5t44 -36t33.5 -44t13.5 -57q0 -40 -11 -71t-29.5 -54t-42.5 -40.5t-51 -30.5q52 9 88.5 48t66.5 94v127
q-2 29 -2 57v56q-6 -1 -13 -1.5t-14 -0.5q-39 0 -63.5 13.5t-39.5 35.5t-21.5 50t-7.5 59zM490 147v94v36q-33 -53 -75 -89t-105 -38q-34 0 -54.5 18t-20.5 49q0 12 5 23t13.5 19.5t17 14t17.5 5.5q22 0 30.5 -8.5t16.5 -24.5q-3 -13 -15 -9q-9 14 -13.5 19t-18.5 5
q-9 0 -21.5 -13.5t-12.5 -30.5q0 -22 15 -35t41 -13q2 0 5 0.5t5 0.5q24 24 38.5 43.5t14.5 58.5q0 26 -15 46t-37 38t-47 36.5t-46 44.5q-29 -38 -43.5 -76.5t-14.5 -83.5q0 -55 20.5 -100.5t54.5 -78t77.5 -50t88.5 -17.5q39 0 79 12v22v82zM640 232q0 26 -10 51t-26 42.5
t-35 26t-38 2.5q-6 -13 -12.5 -26t-14.5 -26v-61v-94q0 -22 0.5 -42.5t0.5 -39.5v-17q57 23 96 70.5t39 113.5z" />
    <glyph glyph-name="quotesingle" unicode="'" horiz-adv-x="240" 
d="M102 551q5 53 6 86t-17 58q-9 9 -17.5 16.5t-19.5 17.5q25 15 44 34t38 48q14 -29 32.5 -48t37.5 -34q-20 -23 -32.5 -44t-23 -41.5t-21.5 -43.5t-27 -49z" />
    <glyph glyph-name="parenleft" unicode="(" horiz-adv-x="330" 
d="M34 348q0 46 11.5 91t32.5 88q0 -23 0.5 -34.5t1 -14.5t1.5 1.5t3 12.5q2 18 5 57q16 30 35.5 59.5t41.5 58.5q-1 -22 -5 -43.5t-4 -43.5q0 -3 2 -3t2 3q0 23 3.5 45.5t4.5 45.5q24 29 49 57t51 55l28 -12q-47 -73 -84 -145t-59 -144q-2 -9 -8 -18t-3 -23
q-14 -58 -14 -120q-2 -38 4.5 -86.5t18.5 -104.5q-1 0 -1 -2v-16t-3 -16q0 -4 4 -4q-1 -22 -0.5 -44t0.5 -44q0 -2 1 -2t1 2v16q4 0 4 3v79q17 -69 40.5 -144t50.5 -148l-42 7q-39 80 -75 154t-62 150q-6 21 -5 38t-6 39q-5 17 -6.5 26t-3.5 19.5t-4.5 25t-10.5 39.5
q0 10 -0.5 20t0.5 20z" />
    <glyph glyph-name="parenright" unicode=")" horiz-adv-x="329" 
d="M262 352q1 -10 0.5 -20t-0.5 -20q-4 -11 -7 -21.5t-5 -22.5q-2 -16 -4.5 -33t-7.5 -33q-8 -22 -12.5 -39.5t0.5 -37.5q-26 -74 -61.5 -148t-74.5 -153l-42 -8q26 71 48.5 142.5t39 138.5t25.5 126t7 103q0 29 -3.5 59t-11.5 61q3 0 5 3q3 10 -1 18t-10 17q-1 2 -5 2
q-22 72 -58.5 144t-83.5 143l28 12q52 -53 99.5 -111.5t80.5 -121.5q0 -11 -0.5 -21.5t-1.5 -21.5q-1 -22 -0.5 -44.5t-5.5 -43.5q-2 -13 -6.5 -22.5t0.5 -23.5q5 -19 5.5 -35.5t-0.5 -34.5q0 -5 5 -5t5 5q1 15 2 31t-4 31q-2 11 -4.5 19t3.5 20q2 8 4 14.5t2 15.5
q3 23 4.5 46.5t1.5 48.5q21 -44 32.5 -88.5t11.5 -90.5z" />
    <glyph glyph-name="comma" unicode="," horiz-adv-x="226" 
d="M85 -124q4 52 5 85t-16 59q-9 9 -18 16.5t-20 17.5q26 14 44.5 33.5t38.5 47.5q13 -28 31.5 -47.5t37.5 -33.5q-20 -23 -32.5 -44t-23 -42t-21.5 -43.5t-26 -48.5z" />
    <glyph glyph-name="hyphen" unicode="-" horiz-adv-x="553" 
d="M507 473q3 -3 1 -8q-29 -49 -58 -76t-58 -39.5t-59.5 -15t-61.5 -2.5q0 6 -5 7q-6 2 -13 3t-14 1q-6 0 -6.5 -4.5t2.5 -6.5q-40 -2 -84.5 -12t-96.5 -45q-4 -2 -8 1q-3 1 -1 8q33 58 65 91t62 49.5t60 19.5t59 2q19 -14 46.5 -14.5t50.5 8.5q7 0 14 0.5t15 1.5q2 -4 5 -4
q6 0 15 2q4 3 4 8q14 4 28.5 10t29.5 16q5 2 8 -1z" />
    <glyph glyph-name="period" unicode="." horiz-adv-x="221" 
d="M110 -35q-12 29 -31.5 47t-44.5 42q24 14 43.5 33.5t38.5 47.5q13 -28 31.5 -47.5t38.5 -33.5l-44.5 -44.5t-31.5 -44.5z" />
    <glyph glyph-name="slash" unicode="/" horiz-adv-x="1009" 
d="M814 892q1 -3 0 -6l-183 -360h-1q-3 0 -4 -4l-1 -1q-7 -6 -7 -22l-80 -158q-13 -3 -13 -20q0 -2 1 -3l-314 -619q-2 -4 -6 -4t-7 2.5t-5.5 6t0.5 8.5l80 169q2 0 3 2q6 11 11 28l155 330q7 -2 8 2q1 2 1.5 4.5t1.5 4.5q0 3 5 3q4 0 4 3q1 10 -4 15l297 628q2 5 9 5
q11 3 15 -15q9 3 15.5 5t14.5 -1q2 0 4 -3z" />
    <glyph glyph-name="zero" unicode="0" horiz-adv-x="417" 
d="M404 441q2 -28 -6.5 -54t-13.5 -54q-2 -37 -2.5 -74.5t-12.5 -72.5q-9 -47 -31.5 -89t-60.5 -72q-26 -20 -59.5 -24t-65.5 4q-46 15 -78 52t-49 80q-23 60 -24.5 122.5t10.5 124.5q9 34 26 67.5t41 61t55.5 45.5t68.5 23q-17 -19 -38 -35t-36 -38q-27 -38 -36.5 -83
t-12.5 -91q-2 -65 3.5 -129.5t34.5 -124.5q11 -21 28 -38t40 -22q24 -5 46 7.5t34 33.5q24 38 32.5 83t13.5 90q-24 -12 -50.5 -19.5t-53.5 -1.5q-27 3 -49.5 19.5t-33.5 41.5q-22 48 -18 103.5t40 96.5q15 17 34.5 25.5t40.5 11t42.5 -2.5t38.5 -16q9 -6 13.5 -14.5
t6.5 -18t3 -20t3 -19.5v50q18 -22 29.5 -49t19.5 -55q6 19 9 39.5t18 35.5zM313 255q2 54 -5 109.5t-40 100.5q-12 15 -28 21t-33 3.5t-31.5 -11.5t-24.5 -24q-26 -39 -27.5 -89t22.5 -92q15 -23 39 -38.5t53 -11.5q22 1 40 10.5t35 21.5z" />
    <glyph glyph-name="one" unicode="1" horiz-adv-x="235" 
d="M212 558q-12 -9 -25.5 -18t-12.5 -26q-6 -62 -3.5 -122.5t-0.5 -122.5q2 -62 1 -122.5t1 -122.5q22 -10 37 -24q-19 -3 -39 -7t-33 -22q-12 -14 -25 -29t-28 -26.5t-32.5 -19t-38.5 -8.5q16 12 32.5 23t24.5 30q12 27 15.5 57.5t4.5 59.5v382q1 23 0 46.5t-6 48.5
q-19 -6 -36 -11t-35 -10q16 26 42 41.5t56 21.5q1 -2 3 -7.5t4 -7.5q5 3 9.5 6.5t9.5 7.5q19 -4 38 -7.5t37 -10.5z" />
    <glyph glyph-name="two" unicode="2" horiz-adv-x="362" 
d="M444 71q13 -7 28.5 -26.5t18.5 -44.5q2 -32 -8.5 -64.5t-39.5 -52.5q-13 -11 -28 -16t-30 -7.5t-31 -5.5t-31 -9q-19 -9 -39 -3t-35 18q-36 29 -60.5 66t-43.5 77q-9 22 -28 38t-44 15q-21 2 -38 -8t-36 -15q-1 7 2 12.5t8 10.5t10.5 8.5t10.5 8.5q67 50 118 117t72 150
q12 43 14.5 89.5t-23.5 87.5q-13 19 -34 28t-43.5 9t-44 -8t-36.5 -25q-20 -18 -30.5 -43.5t-11 -52.5t8 -53t24.5 -46q9 -11 22 -15t26.5 -2t25 10t16.5 20q9 19 7.5 39.5t-0.5 40.5q13 -14 15 -34.5t-4.5 -39t-21 -32.5t-34.5 -15q-21 -3 -41 4t-32 25q-18 25 -24.5 56.5
t-2 62t19.5 57.5t40 46q39 28 86 30t91 -10q33 -9 58.5 -34t34.5 -56q13 -50 3.5 -101.5t-40.5 -93.5q-21 -30 -46 -56t-52.5 -49.5t-56 -46t-56.5 -46.5q39 2 75.5 -8.5t65.5 -37.5q16 -15 28.5 -32.5t23.5 -36t23 -37t27 -32.5q16 -14 36 -18.5t40 -0.5t37.5 15.5
t27.5 28.5q9 14 13 40t-4 54q-11 26 -34.5 39.5t-52.5 12.5q-15 0 -28 -8t-28 -13q5 9 11.5 16.5t14.5 13.5q18 2 34 2q15 -2 29.5 -4t26.5 -9z" />
    <glyph glyph-name="three" unicode="3" horiz-adv-x="428" 
d="M386 283q19 -25 25 -59.5t-1 -70.5t-28.5 -68t-57.5 -50q-48 -27 -102.5 -31t-107.5 -2q-15 1 -33.5 5.5t-38 14.5t-36.5 25.5t-28 37.5q-9 22 -12 47t0 49.5t14 46.5t31 37q45 31 100.5 28t100.5 -30q10 -6 14 -16t8 -19q-22 12 -43.5 26t-47.5 20q-38 10 -78.5 -0.5
t-63.5 -44.5q-21 -32 -20 -70t16 -71q2 -6 11.5 -16t24 -21t35 -20.5t43.5 -10.5q32 -1 63.5 2t59.5 19q35 20 55 53t24.5 69.5t-5 72t-32.5 60.5q-8 11 -19 16t-23.5 8t-24.5 5.5t-23 8.5q16 7 33.5 12.5t30.5 18.5q16 16 25 36.5t10.5 43.5t-4 45t-17.5 40
q-20 20 -45.5 29t-53.5 8t-54.5 -10.5t-46.5 -27.5q-17 -14 -24.5 -33.5t-8 -39.5t6.5 -40t23 -34q7 -8 16.5 -12t19.5 -6.5t19 -6t18 -9.5q-22 2 -46 6.5t-40 22.5q-13 15 -20 33.5t-8 38t3.5 38.5t16.5 34q15 26 41.5 38t53.5 17q47 8 95 2.5t88 -31.5q34 -25 43 -67.5
t-8 -80.5q-11 -19 -29.5 -31.5t-37.5 -23.5q30 -5 57 -20t43 -41z" />
    <glyph glyph-name="four" unicode="4" horiz-adv-x="337" 
d="M302 200q16 1 22 13q-6 -18 -22.5 -36.5t-33.5 -29.5q-17 -8 -36.5 -9t-37.5 -2q-1 -28 -1 -55v-55q9 -5 19.5 -11.5t19.5 -13.5h-49q-17 -15 -33.5 -31.5t-34 -31.5t-37.5 -26.5t-43 -16.5q17 17 35 32.5t24 39.5q9 42 8.5 85t-1.5 85q-59 0 -118.5 -0.5t-118.5 2.5
q57 93 117 184.5t119 183.5q14 22 29 44t38 37q17 11 36 10t37 -7q-10 -6 -22.5 -6.5t-18.5 -12.5q-8 -22 -6.5 -45.5t0.5 -45.5q-3 -68 -0.5 -135.5t-1.5 -134.5l-12 -20q31 6 62 5t61 4zM102 196q1 68 0.5 134.5t-0.5 133.5q-45 -66 -88.5 -133t-86.5 -135h175z" />
    <glyph glyph-name="five" unicode="5" horiz-adv-x="414" 
d="M404 290q12 -45 8.5 -92.5t-29.5 -87.5q-23 -39 -61 -63t-80 -40q-7 -28 -16.5 -54.5t-25.5 -50.5l-13 7q26 43 40 92q-48 -11 -98 -7t-89 34q-40 28 -54.5 75.5t-7.5 93.5q0 3 3.5 10.5l7 15t7.5 14t6 9.5q19 31 54.5 40.5t68.5 1.5q36 -8 63.5 -31.5t40.5 -56.5
q17 -38 17 -80v-84q26 20 43 47t25.5 57t11 62.5t-2.5 63.5q-5 44 -32.5 81.5t-73.5 46.5q-23 5 -46.5 1t-44 -16t-37 -29.5t-27.5 -38.5q-11 19 -10.5 40.5t0.5 42.5q1 46 0 90.5t0 90.5q0 9 5 15.5t9 13.5l9 -24q49 -3 98 -1.5t99 -1.5q21 -1 41.5 2.5t41.5 8.5
q-16 -17 -31.5 -36t-35.5 -31q-54 -4 -107 -2t-107 0q-1 -35 -0.5 -70.5t-0.5 -72.5q49 34 108.5 41.5t114.5 -14.5q38 -12 67 -43t41 -70zM229 19q3 42 3.5 85t-16.5 84q-14 32 -39.5 55.5t-60.5 29.5t-67.5 -9.5t-46.5 -47.5q-12 -27 -11.5 -56t10.5 -55.5t29.5 -48.5
t44.5 -34q36 -19 76 -18t78 15z" />
    <glyph glyph-name="six" unicode="6" horiz-adv-x="414" 
d="M359 369q33 -34 41.5 -80t2.5 -91q-6 -35 -18 -70.5t-37 -63.5q-27 -32 -66.5 -46.5t-81 -12t-78.5 20.5t-61 51q-43 60 -57 133t-3 144q15 64 52 120.5t97 87.5q37 21 82 23t81 -22q19 -11 30 -29t18 -37q-19 7 -28 24.5t-24 27.5q-23 15 -51.5 19.5t-53.5 -6.5
q-32 -14 -51.5 -42t-31.5 -59q-32 -76 -37 -159.5t15 -162.5q7 -29 21.5 -56t40.5 -45q22 -15 49 -16t46 16q26 21 39 50.5t23 58.5q13 50 12 104t-26 100q-16 26 -45.5 37t-56.5 0q-14 -6 -26.5 -14t-25.5 -15q2 18 16 27t29 16q42 15 87.5 6.5t76.5 -39.5z" />
    <glyph glyph-name="seven" unicode="7" horiz-adv-x="306" 
d="M230 447q-61 -80 -103 -170t-58 -189q-2 -21 -1 -41.5t7 -38.5q5 -22 20.5 -37t27.5 -30q-23 5 -37.5 22.5t-23.5 37.5q-14 6 -28.5 11.5t-21.5 20.5q-11 21 -11.5 44t1.5 46q8 42 27 78.5t42 71.5q47 65 97 124.5t98 121.5q-33 -1 -65.5 0t-65.5 1t-65.5 -1.5
t-64.5 -8.5q8 19 20.5 34.5t27.5 27.5q55 7 110 3t110 2q15 3 29 9.5t28 11.5q-2 -8 -5.5 -17.5t-9.5 -18.5q-21 -30 -42 -58.5t-43 -56.5z" />
    <glyph glyph-name="eight" unicode="8" horiz-adv-x="335" 
d="M309 237q11 -24 15 -49t-0.5 -50.5t-16 -48.5t-30.5 -41q-28 -25 -64 -36.5t-73 -11.5q-41 -1 -80 11.5t-69 41.5q-31 28 -44 70.5t1 84.5q8 25 25.5 45.5t39.5 35.5q-11 16 -20.5 32.5t-10.5 36.5q-2 24 8.5 46t30.5 36q32 23 72.5 31.5t79.5 -5.5q-16 -2 -33 -4
t-32.5 -6.5t-29 -13.5t-23.5 -23q-19 -25 -15 -55t16 -55q39 9 79 8.5t80 -7.5q33 46 35.5 106t-23.5 111q-12 16 -29.5 25.5t-36.5 13t-39.5 0t-36.5 -13.5q-19 -9 -29 -25.5t-21 -31.5q0 32 23.5 51.5t51.5 25.5q41 10 84.5 6.5t74.5 -31.5q30 -30 38 -72.5t-3 -80.5
q-9 -29 -26.5 -51.5t-39.5 -42.5q22 -11 41.5 -25.5t29.5 -37.5zM82 294q-1 -3 -1 -5v-4q24 -12 52 -10t49 19q-25 7 -50 8.5t-50 -8.5zM243 82q13 25 17 52t-1 53t-18 50.5t-34 41.5q-39 -16 -81 -18.5t-83 8.5q-21 -24 -30 -54.5t-6 -62.5t16.5 -61.5t39.5 -49.5
q21 -17 46.5 -21t51.5 3t47.5 22.5t34.5 36.5z" />
    <glyph glyph-name="nine" unicode="9" horiz-adv-x="327" 
d="M304 481q15 -46 14 -94.5t-13 -95.5q-15 -33 -29.5 -66.5t-36.5 -61.5q-35 -50 -80 -91t-101 -67q-7 -2 -15 -3t-15 -2q15 15 33.5 24.5t35.5 22.5q27 22 50 48t41 57q27 49 40 102t18 109q0 41 -2 84t-24 78q-11 16 -28.5 24.5t-37 9t-37 -7t-29.5 -22.5
q-27 -38 -29 -85.5t16 -89.5q7 -15 17.5 -29t25.5 -23q17 -6 34.5 -1.5t34.5 8.5q-17 -22 -44 -24.5t-51 4.5q-35 13 -60 43t-30 68q-5 39 6 79t43 65q31 26 71 30.5t77 -2.5q36 -8 64 -32t41 -59z" />
    <glyph glyph-name="colon" unicode=":" horiz-adv-x="218" 
d="M109 -35q-12 29 -31.5 47t-44.5 42q24 14 43.5 33.5t37.5 47.5q14 -28 32.5 -47.5t38.5 -33.5q-26 -25 -45 -44.5t-31 -44.5zM109 374q-12 30 -31.5 47.5t-44.5 40.5q24 15 43.5 34.5t37.5 47.5q14 -28 32.5 -47.5t38.5 -34.5q-26 -24 -45 -43.5t-31 -44.5z" />
    <glyph glyph-name="semicolon" unicode=";" horiz-adv-x="240" 
d="M120 374q-12 30 -31.5 47.5t-44.5 40.5q25 15 44 34.5t39 47.5q13 -28 31.5 -47.5t37.5 -34.5q-26 -24 -45 -43.5t-31 -44.5zM92 -124q5 52 6 85t-17 59q-8 9 -17 16.5t-20 17.5q25 14 44 33.5t39 47.5q13 -28 31.5 -47.5t37.5 -33.5q-20 -23 -32.5 -44t-23 -42
t-21.5 -43.5t-27 -48.5z" />
    <glyph glyph-name="question" unicode="?" horiz-adv-x="547" 
d="M319 3q-19 -18 -33.5 -33t-23.5 -34q-9 22 -24 35.5t-33 31.5q18 11 32.5 25.5t29.5 36.5q10 -22 23.5 -36.5t28.5 -25.5zM411 736q43 -24 69 -65t26 -100q0 -38 -16.5 -70t-45.5 -63q-2 2 -5 1.5t-3 -4.5v-6q-30 -30 -73 -60q-29 -21 -54.5 -43t-45.5 -43.5t-32 -42.5
t-12 -41q0 -12 6.5 -23.5t16 -21.5t21 -16t21.5 -6q35 0 58 20.5t23 51.5q-1 11 2 15t6 4t5.5 -5t2.5 -13q0 -42 -25.5 -65t-75.5 -23q-62 0 -93.5 28.5t-34.5 93.5q1 0 1 1q1 1 1 2q2 0 4 3q5 11 3 17q-2 4 -7 7q4 28 20.5 51.5t40 46t51 44.5t53.5 44q4 3 7.5 6t6.5 7l2 2
q5 3 11 10q2 0 3 0.5t2 0.5q3 1 3 5l13 13q4 -17 2 -34.5t-2 -34.5q0 -5 4.5 -5t4.5 5q1 19 3.5 38.5t-3.5 38.5q22 23 36 47.5t13 50.5q0 36 -11.5 61.5t-32 42t-48 23.5t-60.5 7q-34 0 -61 -10.5t-46 -27.5t-28.5 -38.5t-9.5 -43.5q0 -55 18.5 -82.5t50.5 -29.5
q14 -4 24 1q36 7 44 34q3 18 11.5 16.5t3.5 -16.5q-5 -20 -26 -35.5t-56 -15.5q-63 0 -107.5 29t-49.5 82q2 0 4 2q5 8 4 16t-8 14q4 29 23.5 52.5t47.5 40t61.5 26.5t67.5 14v-8q0 -4 5 -4t5 4v8q5 1 11.5 1h12.5q35 0 68 -7q9 -14 30 -9q5 -2 10 -3.5t11 -3.5
q-1 -12 13 -12q2 0 4 3z" />
    <glyph glyph-name="at" unicode="@" horiz-adv-x="916" 
d="M748 121q32 19 41 11t-12 -24q-37 -30 -70.5 -50t-73 -32.5t-87.5 -17.5t-111 -5q-72 0 -138.5 26.5t-117.5 76.5t-82 122.5t-31 166.5q0 65 31.5 132.5t87 122t131.5 89t164 34.5q86 0 155 -19t116.5 -60t72.5 -105t25 -153q0 -42 -18 -87t-48.5 -82.5t-71 -61
t-86.5 -23.5q-55 0 -74.5 24t-19.5 58q-29 -48 -64.5 -64t-89.5 -16q-44 0 -77 42.5t-33 122.5q0 36 16.5 76.5t47 74t72 56.5t91.5 23q34 0 58 -17.5t36 -45.5q10 9 13 19.5t4 23.5q0 10 10 10l61 4q5 0 9 -4q4 -6 2 -10l-82 -257q-11 -39 -1 -65.5t25 -26.5q30 0 61.5 21
t57.5 53t43.5 71.5t17.5 77.5q1 87 -24 145.5t-69 93.5t-102.5 50t-125.5 15q-66 0 -128.5 -28.5t-111.5 -76.5t-78.5 -109.5t-29.5 -127.5q0 -90 25 -156.5t67.5 -110t97 -64.5t113.5 -21q45 0 83 3.5t74 11.5t71.5 23.5t76.5 39.5zM544 381q11 43 11 74t-7.5 51.5
t-20.5 30.5t-29 10q-21 0 -40.5 -14.5t-37 -38.5t-32 -55.5t-24.5 -64.5q-5 -30 -7 -59t2 -51t16 -35.5t34 -13.5q23 0 45 18t40.5 43.5t31.5 54.5t18 50z" />
    <glyph glyph-name="A" unicode="A" horiz-adv-x="631" 
d="M492 607q-8 -25 -7 -41t10 -36q-1 9 -1.5 17t-0.5 17l21 -1v-277q0 -23 6 -52t17.5 -55t29 -43t41.5 -16q1 -2 -13.5 -13t-33.5 -23.5t-35 -22t-18 -10.5l-23 -18q-1 46 -2 83q-1 30 -1.5 54t-0.5 21v-161q-22 -17 -42 -25q-12 18 -21.5 43.5t-15 55.5t-6 63.5t5.5 67.5
l-25 -11q11 56 0.5 90.5t-35 50.5t-58.5 14.5t-71 -15.5q-39 -16 -63.5 -50.5t-31.5 -72.5q-2 -22 4 -45t20 -42.5t36.5 -31t52.5 -10.5q-2 -4 -3 -11t-4 -13q28 20 43 33.5t22 28.5t7.5 36t-0.5 55q3 0 9.5 0.5t10.5 0.5q21 -48 9 -100t-46 -90q-18 -19 -39.5 -33.5
t-43 -28t-42.5 -28.5t-37 -34q-36 -39 -64 -82.5t-37 -87.5q-7 -42 3.5 -72t29.5 -49t44 -26t47 -3t36.5 18.5t14.5 40.5l10 -3q4 -28 -10 -46t-37 -25.5t-50.5 -3t-51.5 19.5t-41.5 41.5t-19 63t16.5 84.5t65 107q6 9 17 24.5t21 29.5q12 17 25 35q-25 5 -46 17.5t-36.5 30
t-25 39.5t-13.5 46q-8 35 -7.5 70.5t7 70t18 69t24.5 67.5h-16q30 48 63 93t69 90q-14 -6 -35 -14.5t-46 -13.5t-50.5 -3t-47.5 16q-23 16 -28 36t1.5 37.5t20 30.5t28 14.5t26.5 -10t14 -42.5q-11 -2 -19 -2q-4 34 -19 35.5t-25 -14t-6.5 -39.5t35.5 -42q33 -10 67 -2
t61 29t50 46t46 51t48 49.5t57 40.5q21 11 43.5 14t45.5 2q-13 -22 -12 -45.5t12.5 -44t29.5 -35t40 -18.5q45 -10 79 1.5t56 34t31.5 50t7 50t-18 35.5t-42.5 6v20q37 4 56 -12t23 -42.5t-4 -59.5t-26.5 -65t-44 -58.5t-55.5 -39.5q-40 -12 -78 -12zM296 469q23 8 48 9
t50 -2q-2 39 -1.5 64t-5 45t-21 38.5t-48.5 44.5q-7 1 -25 -8.5t-42 -34t-52.5 -67.5t-53.5 -110h39q-14 -7 -26.5 -22.5t-22.5 -35t-14.5 -40.5t-2.5 -38q10 28 27 55t40 48t51.5 33.5t60.5 12.5z" />
    <glyph glyph-name="B" unicode="B" horiz-adv-x="703" 
d="M619 518q32 -22 51 -56t24 -76q-15 -5 -21 -15t-8 -22t-2 -26t-3 -26q-10 -36 -27 -72.5t-46 -61.5q-2 39 -3 69q-1 25 -1.5 45.5t-0.5 18.5v-140l-28 -33v83q0 2 -1 -10.5t-2 -30.5q-1 -20 -2 -47q-22 -23 -58 -47.5t-86 -41.5t-113 -24.5t-139 0.5
q-64 -49 -119.5 -72.5t-99.5 -28.5t-74.5 6t-44 29.5t-9.5 42t28 46.5l11 -18q-22 -19 -20.5 -37.5t19.5 -32t48.5 -17.5t65 4.5t69.5 34.5t62 74q-53 32 -72 70.5t-12 74.5t39.5 64.5t84.5 40.5v44t1 44q-22 3 -43.5 8t-40.5 17l2 29q3 0 8 -4.5t14 -10t23.5 -10.5t35.5 -6
q1 39 0.5 76t1.5 76q-19 -6 -40 -11t-41 -5.5t-39 5t-33 22.5l12 8q18 -17 35.5 -22t36 -1.5t38 14t41.5 23.5q14 8 28 19q7 -36 2 -72.5t-6 -73.5q0 -3 2 13.5t5 40t4 50.5t-2 46q37 30 62.5 62.5t55.5 61t74.5 50t120.5 27.5q16 -39 32.5 -59.5t35.5 -27.5t42 -4t53 12
q-5 -20 -26 -38t-50.5 -39t-61.5 -47t-61 -60q53 11 93 4t71 -26v-91q0 -2 0.5 11t1.5 31zM539 318q1 23 -4.5 49t-17.5 48t-32.5 36.5t-48.5 17.5q8 12 22 13t26 3q-19 3 -37 5.5t-37 -3.5q-27 -6 -44.5 -26t-28.5 -45q0 1 -2 1q-5 9 -9 16.5t-4 16.5q-17 -12 -36 -23
t-37 -20v-121q25 -4 48.5 -16t44.5 -39q9 -13 14 -33t0 -39t-22 -36t-52 -26q-3 2 -9 11t-7 12q34 -6 52.5 13.5t17.5 46.5t-22 53.5t-65 34.5q-1 -31 -0.5 -47t-2 -31t-9 -35.5t-21.5 -59.5q-3 7 -5.5 17l-4.5 18q3 -62 -38 -105q84 -4 155.5 8.5t119 45t66 87t-2.5 134.5
q9 5 16.5 8.5t16.5 9.5zM400 560q28 48 27 87t-23 54t-63 -1t-92 -77v-186q47 18 86.5 49t64.5 74zM101 53q21 52 26 106t2 109q-49 -12 -74.5 -39.5t-29 -59.5t16 -63.5t59.5 -52.5z" />
    <glyph glyph-name="C" unicode="C" horiz-adv-x="645" 
d="M530 268q20 14 44 10.5t44 -19t30 -40.5t1 -56.5t-40.5 -66.5t-93.5 -70q-22 -13 -46.5 -19t-49.5 -7.5t-50.5 -0.5t-50.5 2q-13 -41 -39.5 -75t-65.5 -54q-15 -7 -32.5 -10t-34.5 0.5t-32 13.5t-23 27q-4 12 -5.5 27.5t1.5 30t11 26.5t22 17q4 4 15 5t21.5 -3t18 -15
t5.5 -33q-25 29 -43 29t-27.5 -14.5t-8 -36.5t16.5 -37q19 -22 48 -20t56 20t46.5 47.5t21.5 61.5q-23 4 -43 12t-39 18v62q-3 23 -3.5 40.5t-0.5 15.5v-115q-22 13 -41.5 30.5t-34.5 37.5q-3 84 -4 149q0 28 -0.5 54.5t-1 47t-0.5 32.5t0 11v-287q-35 47 -56 105t-31 120
l-35 -18q2 60 13 118t38 111q-53 -3 -85 8t-48 27.5t-16.5 36t9.5 35.5t29 24.5t43 1.5q-1 -7 -1.5 -14.5t-0.5 -14.5q-17 17 -31.5 17t-22 -11t-9 -27.5t7.5 -30.5t27.5 -21.5t50.5 0.5q44 19 64.5 39.5t29 33t10.5 10t9 -29.5q-1 9 -2 21.5t-1 22.5l33 32q27 27 59 47.5
t68 32t74 14.5t77 -5l17 20q66 -15 106 -44t60.5 -65.5t24 -77t-5.5 -78t-26 -68t-37 -47.5l-11 49v-53q-20 -9 -44.5 -15.5t-50.5 -10.5t-51 -3t-44 9q-30 12 -47 39t-25 57q-9 -58 -3.5 -119t15.5 -118.5t20 -108t10 -87.5q52 -28 102.5 -25.5t92 23.5t69 53.5t32.5 62.5
t-18 52t-81 22zM309 95q8 11 4.5 42t-11 75t-17.5 95.5t-14.5 101.5t-1.5 95t19 77q13 24 27.5 39.5t29.5 24t28 12t24 3.5q38 -3 54.5 -19.5t18 -36t-8.5 -36.5t-25 -21q-30 -8 -45 -2.5t-19.5 17t-1 25.5t10.5 22.5t15.5 9t13.5 -14.5q0 -2 1.5 -8t0 -12.5t-7 -8.5
t-16.5 5q0 -9 6 -13t13.5 -4.5t14.5 1.5t10 8q15 30 3.5 46t-33 18t-45.5 -9t-34 -35q-14 -45 -7.5 -75.5t25.5 -47t46 -20t54.5 3.5t51 24.5t35.5 43.5t8.5 59t-30.5 71q-8 17 -21.5 28.5t-27.5 23t-25 24.5t-14 33q-49 6 -94 -16t-75 -59q-32 -35 -53.5 -92t-23.5 -135
l34 17q-23 -66 -25 -125t14 -107t46 -86t68 -62z" />
    <glyph glyph-name="D" unicode="D" horiz-adv-x="683" 
d="M547 716q54 -49 84.5 -112.5t36 -131t-14 -136.5t-65.5 -131t-118.5 -114.5t-172.5 -86.5q-29 38 -65.5 59.5t-78.5 29.5t-86.5 5.5t-88.5 -14.5q-33 -10 -59 -33t-41.5 -53.5t-18.5 -63.5t9 -63q16 -36 46 -54t62.5 -21t61.5 8.5t46 34.5l11 -15q-17 -29 -50.5 -42.5
t-70.5 -11t-72 23t-55 60.5q-19 46 -14.5 97.5t36.5 91.5q33 44 80.5 71.5t100.5 41.5q24 10 49 13t51 1q1 219 0 439q-23 -11 -50 -19.5t-55.5 -13.5t-56 -4t-51.5 10q-22 -50 -22.5 -104t18.5 -105q13 -39 35.5 -55t47.5 -16.5t48 12t37.5 31t15.5 39.5t-17 40
q-15 15 -34 12t-30.5 -14.5t-11.5 -26t21 -22.5q10 -4 17 -1t8 8.5t-4 10t-20 2.5q0 4 1 10t1 11q10 -3 21.5 -4t18.5 -10q7 -14 -1 -26.5t-21.5 -18.5t-29.5 -1.5t-27 23.5q-12 26 -3.5 44t26.5 27.5t40.5 9.5t39 -11.5t22.5 -35.5t-9 -62q-12 -28 -34 -43.5t-46.5 -18.5
t-49.5 4t-42 25q-21 21 -32.5 46t-17 52.5t-5.5 57t3 56.5q9 58 39 106t74.5 84t100 58.5t115 30.5t119 0.5t113.5 -31.5q10 -6 22.5 -15t22.5 -15v-35q0 -13 1 -28q2 21 3.5 32t2 16.5t0.5 7v4.5q15 -10 27 -21q-1 -9 0 -30t3 -43q3 -25 5 -55q0 29 -1 54q-1 22 -1.5 41
t0.5 27zM199 213q0 -1 0 13.5t0.5 39t1 57t0.5 65.5q1 78 3 180q0 5 -2.5 5t-2.5 -5v-355zM513 269q9 11 15.5 35.5t9 56t1.5 66.5t-4.5 68t-9.5 60t-13 42q-37 62 -86 100t-103.5 55.5t-111 14t-107.5 -24t-93 -58.5t-68 -91q50 -8 101.5 9t84.5 46q32 35 73.5 46.5
t83.5 6.5l-1 -549q19 1 33.5 -2t29 -10t29 -18t32.5 -27q16 0 32 25t29.5 66.5t23 93t11.5 105t-4 102.5t-25 84q-22 37 -44 48t-40 6.5t-29.5 -19t-12 -28.5t11.5 -20.5t43 5.5q3 -6 6 -9.5t2.5 -5.5t-8.5 -5.5t-27 -10.5q-35 -3 -47.5 13t-9.5 37.5t20.5 42.5t41.5 27
t53.5 -10t58.5 -68q9 -19 14.5 -48t8 -62.5t3 -67t-0.5 -61t-3 -45.5t-4 -21z" />
    <glyph glyph-name="E" unicode="E" horiz-adv-x="657" 
d="M602 362q23 -25 32 -65.5t2.5 -85t-30.5 -87.5t-68 -73q-43 -28 -91 -40t-98 -11t-99 13t-93 32q0 34 2 67.5t-2 67.5q-5 -17 -4.5 -34.5t1 -36t0.5 -36.5t-6 -36q-26 -50 -66.5 -91t-88.5 -73q-46 -27 -98 -37t-105 4q-28 8 -44.5 28t-20 45.5t4 56.5t28 61t54.5 56
t81 45q35 14 73 17.5t76 8.5q-1 94 -0.5 186.5t-0.5 186.5q1 24 -7 34.5t-18.5 12t-20 -3t-13.5 -11t2.5 -12t28.5 -5.5l-3 -20q-31 3 -41.5 12.5t-10.5 20t7 19t12 12.5q23 11 38 8.5t24 -14t12.5 -29t5 -36t1 -36.5t-0.5 -29v-271q-2 -21 10 -35q4 16 7 32t2 31
q-1 106 -0.5 210.5t-0.5 209.5q-13 -4 -29 -10t-32 -9.5t-31.5 -2.5t-28.5 11q25 4 50.5 11t47.5 19q22 11 55.5 31t75 41t89 40.5t97 30.5t98.5 11t94 -17q25 -13 46.5 -32.5t27.5 -48.5q-16 -13 -43 -37t-57.5 -55.5t-62 -68t-56 -74.5t-39 -75t-11.5 -70q14 35 43.5 55.5
t64.5 25t70 -6.5t58 -38zM374 111q64 -6 108 8.5t70.5 42t35.5 62t4 67.5t-23.5 59.5t-48.5 37.5q-41 8 -79 -9t-63 -49q-14 -21 -8 -43t23 -37.5t41 -19.5t46 11q16 12 14.5 27.5t-9.5 31.5q-3 6 -12 7.5t-15.5 -0.5t-6 -8t16.5 -15v-11q-18 6 -24 13.5t-5.5 14t5.5 11
t8 6.5q21 9 35 -1.5t18.5 -29t-1 -38t-23.5 -28.5q-18 -8 -39 -8.5t-40 5.5t-34.5 19.5t-22.5 34.5q-5 18 -6 38t0.5 40t5 39t5.5 39l-33 32q-30 2 -58 -8t-54 -22q1 -86 0 -172q1 -29 -5.5 -57.5t-6.5 -57.5q46 -6 90.5 -15.5t90.5 -16.5zM265 739l10.5 -3.5l10.5 -3.5
q-22 1 -42 -9.5t-39 -20.5q1 -56 0 -113t1 -114q44 38 101 51t112 -9q18 21 34 42t34 39q7 37 1 60.5t-18.5 37.5t-28 21t-26.5 10q-37 12 -75 12.5t-75 -0.5zM48 13q4 19 7.5 36.5t10.5 35.5q-4 -3 -10 -5t-10 -3q-18 15 -39.5 23t-45.5 9.5t-47.5 -3t-44.5 -11.5
q-24 -11 -47.5 -27t-41.5 -37t-27.5 -46.5t-6.5 -54.5q-3 -31 16 -49.5t48.5 -24t64.5 1.5t62 24q44 26 67.5 73t29.5 97l9 6q7 -1 7.5 -6t-1 -12t-2.5 -14.5t1 -12.5z" />
    <glyph glyph-name="F" unicode="F" horiz-adv-x="554" 
d="M640 838q2 -59 -8.5 -98.5t-28.5 -66.5t-42 -45.5t-49.5 -34.5t-50 -33.5t-44.5 -43.5q-15 -17 -23 -40.5t-9 -46.5t4.5 -43t18 -30t31.5 -6.5t44 26.5q1 -11 -6 -23t-18 -21.5t-25 -13t-26.5 2.5t-23.5 24.5t-15 54.5h-65q-11 -148 -52 -235t-93.5 -126t-107.5 -39.5
t-95.5 23.5t-56 64.5t12.5 81.5q21 31 47 36.5t44.5 -6t24.5 -35t-14 -51.5q-9 -12 -23 -15.5t-26 0.5t-19 15.5t0 30.5q4 13 16 17t21.5 2t13 -11.5t-7.5 -22.5q-9 -6 -19 2t-7 22q-9 -17 -5.5 -28.5t13 -16.5t21 -1.5t20.5 18.5q8 23 3 37.5t-15.5 21t-22.5 6.5t-20 -4
q-15 -6 -25 -17.5t-14.5 -26t-3.5 -30.5t9 -31q33 -43 77.5 -42t84.5 36t69 102t29 157v399q-18 11 -44.5 16t-54 1.5t-54.5 -14.5t-45.5 -32t-27.5 -51t0 -72q4 -19 23.5 -32.5t43 -18.5t48 1t38.5 27t13.5 57.5t-24.5 94.5q7 7 24.5 11.5t29.5 -4.5q12 -7 14.5 -20
t2.5 -25l-5 -411l-13 1l4 384v17.5t-1.5 18.5t-6 16t-14.5 10l10 -27q12 -68 -8 -105.5t-54 -50.5t-70 -5t-56 32q-17 22 -23.5 50.5t0 58t27.5 58t61.5 49t100.5 31.5t143 6q9 -82 10.5 -161t6.5 -160q4 80 -2.5 160t-8.5 161q5 -1 9 -1h8q95 -19 155 -35.5t97 -18
t58.5 17.5t41.5 70zM385 485q2 18 20.5 43t48.5 49q49 29 90 66.5t66 86.5q-49 -44 -91.5 -55t-80.5 -6t-71.5 16t-65.5 11l1 -212zM213 142q0 -2 1 19t2 47q1 31 2 71q0 6 -2.5 6t-2.5 -6v-137z" />
    <glyph glyph-name="G" unicode="G" horiz-adv-x="862" 
d="M514 798q-12 -83 7.5 -128t54 -55.5t77 11t75.5 70.5q4 -4 7 -8t8 -7q-75 -86 -147 -115.5t-127.5 -14.5t-87 70t-25.5 139q-47 -12 -82.5 -43.5t-59.5 -74.5t-35 -93t-9 -99q9 5 17.5 11.5t17.5 13.5q-22 -79 -8 -146t52.5 -115.5t95.5 -74.5t120 -23q21 0 41.5 18.5
t20.5 44.5q-7 45 -4.5 89t-0.5 88q-21 7 -45 19t-49 20.5t-54 8t-62 -18.5q0 14 2.5 27.5t18.5 18.5q37 18 75.5 24.5t78 6t79 -7t76.5 -15.5q0 -14 -0.5 -29t-0.5 -30q4 13 6.5 26.5t4.5 28.5q30 -3 58.5 -10t58.5 -5q22 -1 42 5t39 12q0 -12 -5 -21t-12.5 -16t-17 -13
t-17.5 -11q-66 -28 -135 -32q-1 -83 -0.5 -166.5t-0.5 -169.5q0 -32 -15 -68.5t-42.5 -71.5t-65 -65.5t-84 -50t-98.5 -25.5t-108 8q-29 6 -48 21t-31.5 31.5t-18.5 32t-7 25.5q-8 48 7 79.5t39.5 47t52.5 13.5t47 -19q17 -12 21.5 -37t-18.5 -60l-21 6q28 27 26.5 47
t-13.5 27q-16 15 -37 14.5t-40 -3.5q-21 -10 -31.5 -28.5t-12.5 -40t3.5 -43.5t16.5 -38q14 -23 36 -37.5t47.5 -21t53 -5.5t51.5 9q43 12 71 40t44.5 63.5t23.5 75.5t9 75.5t1.5 63t-0.5 38.5q-37 -26 -74 -54.5t-75 -54.5q-38 -5 -82.5 6.5t-90.5 46.5t-90.5 98t-82.5 162
q-4 -6 -11 -12.5t-13 -12.5q-9 113 14.5 209t80 165.5t146 107.5t215.5 33q2 -4 3 -11t2 -13l5 15q8 2 22.5 2h23.5z" />
    <glyph glyph-name="H" unicode="H" horiz-adv-x="585" 
d="M454 178q22 -15 44 -23t54 -12l-148 -92l-173 76q19 2 31 6t25 13l-3 194q-10 -3 -24.5 -6t-29 -4t-29 -0.5t-24.5 2.5q-2 -57 -1 -114t-2 -113q-1 -4 -4 -23.5t-11 -49t-23 -64.5t-40 -69.5t-60.5 -65.5t-85.5 -51q-39 -12 -81 -19t-78.5 -3.5t-65.5 21.5t-43 55
q6 1 10.5 1.5t9.5 0.5q13 -32 42.5 -48.5t66 -16t76 17t72 49.5t54 84t22.5 118q2 72 1 145t1 145q-44 5 -81 15.5t-74 22.5l48 180q8 -17 19 -33t25 -30t30.5 -24t37.5 -13q2 41 0.5 81.5t-10.5 81.5q-10 32 -34 58t-61 26q12 7 34.5 19.5t48 27.5t51 31t43.5 28
q18 -23 29.5 -35.5t18 -25.5t9.5 -30.5t3.5 -51.5t0 -89.5t-0.5 -144.5q3 -1 18 -2.5t32.5 -1.5h34t23.5 3v467q0 19 -5 38t-18.5 30t-37 9.5t-60.5 -23.5q-22 -14 -21.5 -36t13 -41t32.5 -29.5t37 -1.5v-20q-40 4 -65.5 21t-35 40t-0.5 46.5t35 39.5q42 24 69 24t43 -14
t22.5 -34.5t6.5 -37.5v-473l23 8l-1 289q-1 34 5.5 78.5t24.5 89t49.5 86t80.5 71.5q59 28 105.5 25t78.5 -30.5t49 -75t17.5 -106t-15.5 -124t-50 -129.5t-86 -123t-125 -104zM458 920q-5 1 -7 -30.5t-3 -79.5t-1 -104t0.5 -105.5t1.5 -83t1 -36.5q62 25 108.5 69.5
t78 98.5t47.5 112.5t16.5 111.5t-15 95.5t-46.5 65.5q-30 20 -61 16t-57.5 -23t-44 -48.5t-18.5 -58.5zM319 351l-20 -9v-187l19 13zM120 66q0 -3 2.5 16t5.5 47t4.5 60t-0.5 55q-1 8 -3 4.5t-2 -8.5q4 -45 -1.5 -87.5t-5.5 -86.5zM85 178q5 16 5.5 29t0.5 27q0 8 -2 8
t-2 -8q0 -12 -1 -23t-6 -24q0 -2 2 -6t3 -3z" />
    <glyph glyph-name="I" unicode="I" horiz-adv-x="362" 
d="M234 926q3 -6 0 -12q0 -3 -2 -10q-2 -9 -4 -13q0 -1 -0.5 -1.5t-0.5 -1.5q-3 -6 -6.5 -11t-5.5 -10l-7 -12l11 -23q9 -16 14 -33l5 -19q0 -1 0.5 -2t0.5 -2q2 -16 2.5 -36.5t0.5 -51.5t-0.5 -76.5t-0.5 -108.5l7 3q1 0 1.5 0.5t1.5 0.5l4 2l17 6l10 4q-10 -21 -17 -40
q-3 -11 -6.5 -22t-5.5 -24l-7 -37l-3 -29l-2 -28l-2 -49q-1 -36 0 -70.5t2 -65.5v-2v-2q1 -4 5 -10q0 -1 2 -3q7 -9 25 -20l6 -4q9 -5 18 -9t16 -6q8 -2 14 -3t10 -1q2 0 4 2l-142 -96l-157 80q2 0 4 1q13 4 27 11l3 3l1 1q4 2 9 9l2 4v4v477l-8 -5q-2 -2 -4 -2l-9 -3
l-11 -4q-5 -1 -11.5 -1h-11.5q-1 0 -1.5 0.5t-2.5 0.5q-6 1 -10.5 2t-8.5 3q-6 1 -8 4q-15 9 -25.5 22.5t-17.5 29.5l-3 10l-3 14q-1 18 0 34l2 10q0 5 2 9q8 23 28 37l13 8l5 4q22 14 42 22q9 6 21 11q7 4 14 7t14 8q3 2 7 3.5t7 3.5q9 5 13 8q9 6 17 10t16 10q14 9 31 23
l11 10l5 5q3 3 3.5 4t2.5 2l10 12q5 6 9 12q2 2 4 7q2 2 2.5 3.5t1.5 3.5v-2zM125 682v15q0 1 -0.5 1t-0.5 2v3l-2 7q0 2 -1 3l-3 9l-2 3q-3 4 -10 12l-4 2q-2 4 -6 6t-7 4q-1 0 -1.5 0.5t-1.5 0.5l-4 2l-11 4q-1 0 -2 0.5t-2 0.5h-3q-26 3 -49 -9t-34 -34l-3 -8q0 -2 -1 -3
q-2 -7 -2.5 -13t-2.5 -12q0 -31 14 -52q2 -2 2 -3q12 -18 30 -26l11 -3q16 -3 37 5l9 6q1 0 3 2q4 2 6 5l8 7l7 10q0 1 2 3q0 3 1 3l4 13q0 13 -7 24l-2 3q0 1 -2 4q-4 5 -11 10q-3 2 -5 2q-3 2 -12 4h-10l-4 -2q-10 -3 -9 -19q0 -1 0.5 -1t0.5 -1v-1q1 -2 9 -4q1 0 2 -2
q8 0 11 2l1 1q1 0 2 1l1 1l2 1q0 1 0.5 1.5t0.5 1.5q0 -5 2 -12l3 -10q-2 -2 -3 -2l-5 -3q-2 0 -3 -0.5t-2 -0.5q-19 -6 -33 7l-2 4q-6 5 -6 15v8q0 5 3 14l2 3q1 4 2.5 6t3.5 4l7 5q10 5 22 3t24 -10l5 -3l12 -12q2 -3 3 -5l2 -4q2 -2 2 -5q1 -2 2.5 -4t1.5 -4q2 -7 2 -10
q0 -11 -1 -17l-6 -18l-3 -6q0 -1 -1 -1q0 -2 -1 -3q0 -1 -0.5 -2.5t-0.5 -3.5l-3 -12v-25q0 -2 1 -4t1 -4v-13l2 -428l15 15l3 542v4z" />
    <glyph glyph-name="J" unicode="J" horiz-adv-x="585" 
d="M586 922q20 -17 27.5 -50.5t-6.5 -67t-55.5 -58t-118.5 -22.5l-2 -605l-12 33l-13 -27q-1 61 -1 108v102q-2 -28 -2.5 -66t-0.5 -72v-81q-10 -18 -25 -39.5t-41.5 -44.5t-67 -45.5t-101.5 -42.5q0 -3 -2 -13t-2.5 -26t2 -38.5t12.5 -50.5q1 -7 17 -17.5t37 -13.5
t42.5 7.5t34.5 46.5l19 -4q-7 -29 -20 -44t-30 -20.5t-35.5 -3.5t-34.5 8t-27.5 13.5t-14.5 13.5q-15 26 -19 49.5t-3.5 42t4.5 31.5t4 20q-52 -2 -105.5 8t-93.5 44q-27 22 -46.5 51.5t-30 62t-10 67t13.5 66.5q26 56 67 86.5t86 40t89.5 -1t79.5 -35.5q29 -22 40 -58
t9 -71q-2 -23 -9 -50t-16.5 -55.5t-21.5 -56.5t-23 -52q27 11 49.5 32t39 52.5t26.5 75t10 100.5l2 485q-66 3 -94.5 -10t-36 -30t-0.5 -33.5t11 -20.5q8 -8 18.5 -11t22 -2t22.5 4t18 4l8 -5q-22 -12 -48 -15t-48 12q-24 18 -26.5 49.5t10.5 56.5q13 31 41 45.5t58 22.5
q32 8 64.5 8t65 -3.5t64 -9t63.5 -7.5q29 -2 45.5 6.5t23.5 23t7 31.5t-4.5 31.5t-12 22.5t-15.5 5q-13 -7 -8 -11.5t7 -7.5l-11 -13q-16 19 -16 30.5t8 16.5t20.5 3.5t21.5 -7.5zM161 -14q12 24 25 57t29 68q-32 -37 -78.5 -44.5t-92.5 0.5q-29 8 -48.5 31.5t-28 51.5
t-2.5 56.5t31 48.5q8 7 22 11.5t27 3t23 -8.5t11 -22l-15 -2q-8 15 -23 13.5t-27 -5.5q-24 -6 -30 -31.5t4.5 -51t36.5 -43t66 -8.5q30 8 51.5 33t23.5 61l-26 -5q8 61 -7.5 91t-43.5 39.5t-62.5 3t-60.5 -20.5q-44 -30 -59 -77.5t-6.5 -95.5t36.5 -88t71 -55q34 -15 74 -19
t79 8z" />
    <glyph glyph-name="K" unicode="K" horiz-adv-x="651" 
d="M442 74q-3 34 -5 61t-6 52.5t-10 54.5t-17 66t-27.5 86t-41.5 118q-24 -14 -44 -32t-45 -32q4 -61 2 -117q-3 -48 -10 -99.5t-25 -84.5q-24 -38 -51.5 -70.5t-61 -55t-76.5 -32.5t-97 -2q-47 7 -80.5 35t-50 63.5t-13 74t29.5 67.5q16 18 40.5 20.5t46.5 -3.5
q12 -3 23.5 -14.5t16.5 -27t0 -32t-26 -29.5l-14 2q24 18 26 36.5t-8 32.5t-28.5 20t-34.5 0q-29 -12 -41.5 -40.5t-8 -61.5t24.5 -63.5t59 -46.5q41 -16 74 -14.5t58 12.5q46 27 70.5 61.5t34.5 79.5t10.5 102t0.5 130q-17 -4 -36 -2t-36 9t-30 19t-20 31q-7 32 -1.5 65.5
t24.5 59.5q16 26 44 40t57 23v70q-14 -2 -29 -5t-30.5 -4t-30 2t-25.5 13q39 3 65.5 23t54.5 57q43 61 88.5 89t88 33.5t77.5 -7t55 -31.5q18 -18 22.5 -42t-10.5 -61q-11 -27 -38.5 -38.5t-55.5 -5.5q-22 8 -32 25t-9 34t13.5 31t37.5 16q25 -2 35 -12t8 -21t-12 -20.5
t-27 -9.5q-1 5 -0.5 9t-0.5 8q24 3 24.5 10t-10 12.5t-25.5 5.5t-23 -12q-9 -18 -4 -37t35 -29q49 -10 73 40q9 21 8.5 45.5t-16.5 42.5q-29 28 -63.5 31t-65.5 -9.5t-52 -34t-22 -41.5v-184q29 -4 56 -12.5t51 -19.5q9 -5 17.5 -1.5t14.5 12.5q31 42 58.5 85t49.5 89h119
q-51 -49 -95 -92q-19 -19 -37.5 -37t-34.5 -34.5t-28 -29.5t-18 -19q14 -15 38 -55.5t48.5 -88.5t44.5 -91.5t25 -62.5l19 38q0 -71 15 -113t37.5 -61.5t49.5 -22t52 5.5q14 5 21.5 21t14.5 30q1 -37 -18.5 -71.5t-51 -59t-70 -34t-74.5 3.5q-31 12 -52 42t-33 59
q-5 -4 -9.5 -18t-10.5 -18zM137 612q-25 -6 -48 -22.5t-38.5 -39t-20 -49t9.5 -51.5q6 -13 17 -21t25 -11.5t28.5 -4t26.5 0.5v198zM246 474q19 14 36.5 30t34.5 32q-15 23 -29.5 35t-41.5 24v-121z" />
    <glyph glyph-name="L" unicode="L" horiz-adv-x="525" 
d="M878 41q27 -23 32.5 -53t-7 -59.5t-41 -54.5t-67.5 -37q-17 -5 -39.5 -7.5t-44.5 -4.5q-26 -2 -51 -2l38 -29q-44 -1 -77 5.5t-59 18t-50 27t-50 31.5q-2 -9 -3 -17l-2 -16q-13 24 -35.5 50t-50 50t-56.5 45.5t-54.5 38t-44.5 27t-25 12.5q-23 -13 -36 -22t-26 -15.5
t-30.5 -13t-47.5 -14.5q-36 -8 -71 -11t-62 1.5t-40 19.5t-5 46q14 23 28.5 36.5t38.5 22t60 16t91 19.5q7 66 9 122.5t0 112.5t-8.5 115.5t-17.5 129.5q-13 1 -17.5 -1.5t-11.5 -4t-21.5 -1t-48.5 6.5v16q18 1 29 0.5t20 1t17.5 6.5t21.5 17q0 21 0.5 47t2.5 53.5t5 52.5
t8 45q7 28 25 46.5t41 29t48.5 14.5t48.5 3q29 -2 55.5 -7.5t49 -13t38 -15t22.5 -12.5q32 -21 54 -58t15 -92q-2 -30 -13.5 -58t-34.5 -47q-15 -12 -31.5 -16t-34.5 -2l5 16q37 5 49 19.5t11.5 30t-10 28.5t-17.5 18q-11 7 -31.5 10t-41.5 -5t-38.5 -27.5t-22.5 -56.5
q-4 -36 -4.5 -87.5t-0.5 -109t1 -114.5t0 -103t-5 -76.5t-13 -33.5q18 -6 48.5 -20.5t62 -30.5t58 -29.5t35.5 -16.5v30q14 -19 46 -44.5t72.5 -51t85.5 -48.5t87.5 -34.5t77 -8t54.5 27.5q20 21 19 46t-12.5 42.5t-30 23t-34.5 -12.5l-21 2q3 14 13.5 21t22.5 8.5t26 -1.5
t24 -13zM82 694q35 25 72 47t75 38q8 -62 11 -123.5t3 -124.5q0 -5 3 -5t3 5q0 63 -3.5 125t-11.5 125q38 15 72.5 21.5t63 -0.5t49 -28.5t28.5 -60.5q13 35 13 67t-10 58t-27 44t-37 26q-9 3 -30 10.5t-47 14t-56.5 10t-58.5 -0.5t-52 -18t-39 -43q-8 -19 -12 -50t-6 -62
q-3 -36 -3 -75zM143 157v485h-53q12 -72 20 -133.5t10.5 -119.5t0.5 -115t-9 -121zM-107 29q9 -14 41 -15.5t67.5 8.5t66.5 30.5t39 50.5q-29 4 -57 6t-61 -3q-13 -5 -29.5 -10.5t-31 -14t-25 -21.5t-10.5 -31z" />
    <glyph glyph-name="M" unicode="M" horiz-adv-x="785" 
d="M-257 446q-42 6 -62.5 23.5t-27 38.5t-3.5 41t9 30q11 16 27 25.5t34 13t37.5 1t35.5 -11.5l-17 -17q-20 8 -42 9.5t-40 -14.5q-10 -11 -14.5 -26t-2.5 -29.5t9 -28t20 -20.5q42 -26 97.5 -15t114.5 53.5t115 115t99 170.5q12 -5 31.5 -27t41 -53.5t43 -66.5t40 -67
t31 -55t14.5 -29q38 58 87 118t105.5 103t119.5 60t132 -11q-37 0 -59 -11.5t-33.5 -29.5t-15.5 -37t-4 -35q0 -35 1 -78.5t2 -81.5q1 -45 2 -91l31 15q-9 -23 -18.5 -46t-9.5 -47q0 -72 0.5 -142t0.5 -140q18 -106 86.5 -160.5t187.5 -38.5q21 3 40.5 13t37 24.5t33 33
t28.5 35.5v-30q-24 -36 -57.5 -60t-73.5 -36q-41 -14 -82 -12t-79.5 15t-72 36.5t-59.5 51.5q-21 22 -40 44t-41 44l-12 633l-1 -613q-20 19 -47 31.5t-54 17.5q15 10 34.5 18.5t38.5 9.5v238l-34 -9q3 27 9 54t13 54l12 -1v234q-59 -34 -108.5 -90.5t-87.5 -112.5
q15 -19 33 -65t29.5 -108.5t12 -139t-19.5 -160.5q-9 -38 -29 -76t-44.5 -61t-48.5 -26.5t-43 27.5q-22 37 -29.5 79t-12.5 84q-26 -23 -45.5 -50t-39 -55t-40.5 -54t-48 -47q-42 -35 -93 -52.5t-99 -19.5t-86.5 11t-55.5 37q-11 14 -14 31t-1 34t11 32.5t22 27.5l10 -20
q-6 -3 -10 -8q-4 -6 -8.5 -14t-6.5 -20q-6 -25 6.5 -47.5t34.5 -31.5q49 -20 95 -14.5t87 31.5t75 69t58 96.5t38 114.5t14 124v382l-36 32q-60 -62 -105 -99t-82.5 -55t-69 -21t-61.5 1zM127 211q0 -36 3.5 -71t12.5 -67q12 2 25.5 4t26.5 4q-1 33 4 65.5t13 64.5
q9 30 20 57.5t23 54.5q6 11 4 22t-6.5 21t-11 20t-10.5 20q-13 25 -27.5 48t-26.5 48q-13 13 -25.5 27t-24.5 29v-347zM342 -14q4 85 -12.5 166.5t-54.5 157.5q-20 -44 -34 -89.5t-23 -93.5l-2 -45q22 -5 40.5 -15t32.5 -27q-18 3 -37.5 4.5t-34.5 -7.5q0 -18 5 -49
t14 -59.5t23 -47.5t31 -12q29 24 37 53.5t11 46.5l31 13q-6 -2 -13.5 2t-13.5 2z" />
    <glyph glyph-name="N" unicode="N" horiz-adv-x="561" 
d="M-98 746q42 23 80 28.5t71 1.5t61.5 -14.5t52.5 -18.5l71 4q37 -63 70 -128t68 -131l23 29q3 -20 7.5 -45t12.5 -50t19 -47.5t26 -35.5v317q-32 6 -62.5 16.5t-61.5 24.5l92 110q19 -39 42.5 -58t51 -22.5t57.5 3t62 18.5q20 9 34.5 36t18.5 58t-4.5 58.5t-33.5 37.5
q-28 9 -57.5 12t-56.5 -12q-19 -10 -30 -29.5t-3 -41.5q5 -11 15.5 -18t20.5 -10l-1 -16q-23 0 -36.5 14t-16 34t5 40t24.5 31q24 15 55.5 19.5t60 -2t50.5 -25t26 -47.5q5 -45 -6 -86t-38.5 -72.5t-72.5 -51t-108 -23.5v-654l-184 316l-21 -32q-19 82 -43 137.5t-49 96
t-48 70t-40 61.5q1 -124 6 -246.5t19 -245.5q24 2 45 -7t36 -28q-39 -8 -61 -27t-39.5 -45.5t-37.5 -59t-55 -66.5q-9 -10 -31 -20t-44.5 -17t-40 -9t-17.5 5q52 22 94 77q18 23 35 56.5t31 77t22 100t8 127.5q2 83 3 165t-1 164q0 33 -17.5 53.5t-44 30.5t-57 12t-58.5 0z
" />
    <glyph glyph-name="O" unicode="O" horiz-adv-x="630" 
d="M627 576q-10 -114 -33 -200.5t-54.5 -151.5t-69.5 -111t-77 -80q-43 -32 -70.5 -45.5t-50.5 -15.5t-47 7t-57 23q-41 23 -75 64.5t-55.5 93t-29.5 111t1.5 121t38.5 121.5t82 113q20 74 59 121t86.5 68t99 15.5t96.5 -38t79 -91t47 -143.5zM364 54q41 32 65 73.5t38 88
t19 96.5t6 98l-32 -7q14 87 0.5 154t-44 112t-70.5 68t-77.5 22.5t-66 -25t-36.5 -74.5q24 15 44 24.5t37 15t32 10t29 9.5l1 -17q-53 -12 -86.5 -33t-51.5 -47t-21.5 -54t2.5 -54.5t20 -48t33 -34.5q11 -9 33 -13.5t44 3.5t39 36t19 87l18 -1q2 -14 -1 -38t-11 -48.5
t-22 -43t-35 -19.5q-66 -1 -99.5 15t-49 38.5t-18.5 44.5t-10 33q-17 -67 -14 -129.5t21 -115.5t48 -96.5t64 -73.5t69 -44.5t64 -11.5zM551 605q0 5 -2 5t-2 -5v-262q0 -5 2 -5t2 5v262z" />
    <glyph glyph-name="P" unicode="P" horiz-adv-x="569" 
d="M530 614q3 1 10 1.5t11 3.5q-3 -72 -26 -139t-64.5 -118t-99 -80.5t-127.5 -26.5q-2 -50 -18.5 -97t-43.5 -90q38 -38 51.5 -72.5t10.5 -62t-19 -47t-36 -25.5l-14 11q9 5 16.5 7t13 5t10 9t8.5 17q8 20 7 40.5t-9.5 39t-21 35t-28.5 27.5q-33 -49 -59 -78.5t-48 -47
t-43.5 -25.5t-47.5 -11q-22 -3 -46 3t-43.5 20t-32.5 34t-15 46q-2 42 25 69t69.5 40.5t93.5 13.5t98 -15q19 62 21 112t3 69q-36 15 -54 48t-18 70t17 70t54 47q1 29 0.5 55t0.5 53q-34 -13 -73.5 -12t-65.5 28q-17 18 -23 41t-3 46t15 44t33 32q26 16 59.5 16.5
t56.5 -22.5q11 -13 14.5 -27t0 -29t-13 -27t-24.5 -18q0 3 -1 9t-2 9q11 7 18.5 16.5t7.5 27.5q-2 23 -20.5 34t-41.5 11t-46.5 -12.5t-34.5 -40.5q-10 -26 -4.5 -56t27.5 -50q18 -16 41 -15.5t44 2.5q18 4 37.5 18t40 32t41.5 37t42 32q27 18 69.5 28t77.5 1q50 -12 101 3
q-8 -11 -17.5 -21.5t-19.5 -21.5q25 -25 39.5 -57.5t18.5 -68.5zM235 274q42 0 79 18.5t64 50t43 73t16 87.5q-16 -5 -29 -11q31 57 19.5 110.5t-53.5 84.5q-30 25 -68 23t-69 -21v-157q25 -3 48.5 -15.5t34.5 -39.5q10 -27 5 -58t-26 -52q-14 -14 -30 -18t-34 -8v-67z
M-34 -81q45 15 71 36t38.5 42.5t17.5 42.5t10 38q-88 17 -139 10t-78 -24t-35.5 -37t-8.5 -30q0 -29 16.5 -46t36 -24.5t40.5 -9.5t31 2zM235 360q16 2 30 5.5t24 16.5q20 22 20.5 53t-16.5 53q-10 15 -25.5 20.5t-32.5 8.5v-157zM135 304q1 47 0.5 94.5t0.5 94.5
q-3 0 -8 -0.5t-8 -0.5q-22 -18 -32.5 -45t-8 -54t16 -52t39.5 -37zM210 235q0 -2 0.5 18.5t2.5 46.5q0 31 2 71q-2 1 -6.5 1h-6.5z" />
    <glyph glyph-name="Q" unicode="Q" horiz-adv-x="602" 
d="M575 -147q10 -8 16.5 -14t15 -12.5t20 -13.5t31.5 -14q-66 -1 -110 17t-74.5 52.5t-50.5 84t-39 112.5q-26 -17 -51 -37t-54 -27q-45 -9 -86 8t-76 45q-53 46 -79.5 110t-35.5 132q-6 64 5.5 115t30 90t39 66.5t30.5 44.5q14 80 59 125.5t99 62.5t105.5 9t79.5 -35v-212
l3 1v207q30 -31 47 -57.5t27 -54.5t16 -60t12 -72q6 2 14 7t14 7q-2 -71 -22.5 -141t-45 -126.5t-45 -93.5t-22.5 -42q39 -90 75.5 -138.5t71.5 -71.5t70 -28t71 -7q-10 -13 -20.5 -25.5t-23.5 -23.5q-16 -5 -33.5 -4t-34 3.5t-29.5 5.5t-20 5zM194 155q6 -9 26 -27.5
t45 -32t51 -15t45 22.5q-17 34 -34 65.5t-49 51.5q-16 10 -32.5 7t-28.5 -13t-19.5 -26t-3.5 -33zM418 173q18 49 28.5 105.5t6.5 109.5q-5 -4 -11 -7.5t-12 -7.5q10 41 10.5 84.5t-7.5 85t-27 79.5t-48 70q-24 26 -57.5 41.5t-68.5 6.5q-21 -5 -34.5 -17.5t-23 -27t-16 -27
t-11.5 -19.5q32 20 70.5 38.5t83.5 18.5q-1 -3 -1 -8.5v-8.5q-46 -9 -89 -31.5t-69 -63.5q-3 -6 -5.5 -18t-2 -27.5t3.5 -31.5t8 -30q16 -32 35 -49.5t40.5 -20.5t43.5 10t42 43q8 15 8.5 35.5t-6.5 38.5l18 4q13 -24 8 -56t-24.5 -57t-53 -36t-78.5 8q-35 18 -52.5 53
t-17.5 72q-20 -38 -21.5 -81t1.5 -85q2 -28 11.5 -59t22 -58.5t27.5 -48t28 -26.5q15 50 46 72t67 20.5t70.5 -26t56.5 -67.5z" />
    <glyph glyph-name="R" unicode="R" horiz-adv-x="576" 
d="M484 165q14 -20 28 -36.5t31 -22.5t40.5 0.5t56.5 33.5q-8 -39 -27.5 -68t-46 -46t-56 -22.5t-56.5 3.5q-29 9 -50 40.5t-35.5 74t-25 91t-19.5 93.5t-18.5 82t-22.5 56q-25 5 -48 7.5t-46 8.5v-282h-20q-6 -20 -12 -33.5t-11.5 -25t-11.5 -23.5t-13 -30q46 -33 59 -71
t4 -69.5t-34 -50t-54 -13.5l4 11q10 -2 26.5 4t24.5 15q11 11 18.5 27.5t5 37t-17 45t-45.5 52.5q-18 -28 -39 -52.5t-46 -44.5t-53.5 -32.5t-60.5 -14.5q-60 -6 -96 9t-48.5 40.5t-2.5 55.5t41 56q27 23 57.5 34t64.5 13.5t67.5 -2.5t64.5 -15q6 26 11 46t7.5 39t4 38
t1.5 42v318q-19 14 -40 8t-41 -13q16 24 43 41q19 17 39 31t45 20q8 1 15 2t15 3v-273q0 -1 0 10v30t0.5 44t0.5 51q1 60 2 140q22 5 43.5 12.5t42.5 19.5q-7 -24 -24.5 -38.5t-37.5 -26.5q-1 -13 -1.5 -25.5t-0.5 -24.5q33 9 58 -3.5t43.5 -33.5t30 -42.5t16.5 -30.5
q17 20 27 34t14.5 28.5t5 30t-0.5 35.5l-21 -15q14 23 10 51.5t-25 53t-59.5 41.5t-91.5 21q-70 0 -132 -25.5t-106 -67.5t-66 -98t-10 -117q4 -27 19 -53t43 -34q31 -9 62 6.5t45 44.5l14 -16q-12 -23 -33.5 -37t-46.5 -17t-49 4.5t-41 27.5q-28 37 -33 93.5t18.5 115
t79.5 109.5t149 78q36 8 76.5 11.5t82.5 1t84 -11.5t79 -26q-1 -8 -0.5 -22.5t1 -30.5t1.5 -30.5t1 -22.5q1 6 2.5 20t2 29.5t1.5 29t2 21.5q15 -9 25.5 -22t19.5 -29l33 11q3 -54 -13.5 -107.5t-59.5 -88.5q-26 -25 -56 -39l-22 -10t-22 -11q26 -38 43.5 -76.5t32.5 -75
t29.5 -71t34.5 -64.5zM-42 -67q23 10 39 27t27.5 37.5t19 43.5t12.5 46q-5 1 -19.5 6.5t-35.5 9.5t-48.5 5t-59.5 -7q-35 -10 -56 -24q-12 -8 -22 -15q-39 -36 -39 -66.5t25 -50.5t68 -25t89 13zM189 477q7 -3 11 -5t12 -4t22.5 -3t42.5 -1q-5 24 -14 46.5t-21 43.5
q-10 14 -23 22t-30 6q-1 -27 -0.5 -52.5t0.5 -52.5zM179 359q0 4 -2 4t-2 -4v-157q0 -5 2 -5t2 5v157z" />
    <glyph glyph-name="S" unicode="S" horiz-adv-x="623" 
d="M559 117q-44 -59 -111.5 -91t-141.5 -27q13 86 -19 132t-103 62q22 -50 23 -110.5t-14 -119.5q-16 -46 -48.5 -71t-69.5 -33.5t-73.5 0t-62.5 31.5q-20 20 -31 52.5t-10.5 69t14 75t41.5 70.5t71 54.5t103 27.5q-18 40 -46 75t-55 70q-29 36 -53.5 76.5t-42.5 81.5
q-21 56 -14 106t33.5 89.5t67 66.5t86 36.5t91 0.5t80.5 -42h21.5t41 -3.5t53.5 -11t60 -22.5q0 -5 -0.5 -14.5t-0.5 -14.5q8 -14 33 -22t52.5 -2.5t50.5 29t27 73.5q14 -42 -1 -76t-46.5 -58.5t-73.5 -36t-84 -7.5t-77 24.5t-51 60.5q-5 -23 -21.5 -37t-37.5 -20.5
t-43.5 -3.5t-40.5 15l3 14q26 -8 47 -7.5t43 6.5q23 10 28.5 34t3.5 46q-35 3 -69 -2t-64 -26q-25 -21 -38.5 -48t-13 -55t17 -55t52.5 -47q32 -12 51 -13t37 4t41 14t64 16v-23q31 3 62.5 -1.5t61.5 -17t55.5 -31t45.5 -42.5q23 -35 35.5 -78t12.5 -86.5t-13.5 -84.5
t-39.5 -72zM463 67q27 20 46.5 53.5t26.5 71.5t-1.5 74t-40.5 61t-89 33.5t-148 -9.5q3 5 6.5 14.5t5.5 15.5q-46 -6 -87 2t-73.5 22.5t-55 34.5t-32.5 39q-23 49 -16 105t39 100q35 46 85 75t108 37q-22 22 -58 27.5t-74.5 -4t-75 -33.5t-61 -58t-31.5 -79t13 -97
q17 -43 42.5 -81.5t53.5 -75t56.5 -73t52.5 -76.5q63 -1 111.5 -6.5t85.5 -23.5t64 -53t47 -96zM-52 -81q23 -28 55.5 -38t65 -2.5t61 31.5t44 64t13.5 95.5t-31 126.5q-34 5 -70 -1.5t-68 -24t-56 -46.5t-32 -69q-7 -34 -6 -71t24 -65z" />
    <glyph glyph-name="T" unicode="T" horiz-adv-x="558" 
d="M-91 -11q5 -54 26.5 -80t49 -28.5t58.5 15t56 50t41 78t15 98.5v347q-12 -29 -28 -57t-42 -47q-41 -31 -92.5 -32.5t-98.5 17.5q-23 10 -40 28t-28 40.5t-15.5 48t-3.5 49.5q-4 49 13.5 96t52.5 82q50 52 119 79t137 31q64 5 110 -1.5t81.5 -17.5t63 -24.5t53.5 -24
t53.5 -16t62.5 0.5q16 2 29.5 5.5t27.5 8.5q-23 -35 -56.5 -55t-72.5 -28.5t-82 -6.5t-83 8v-220l28 11q-16 -15 -21.5 -33t-6.5 -46v-267q14 -2 27 -9t25.5 -16t23.5 -18.5t22 -17.5q-12 3 -30 6t-39.5 1t-45.5 -13t-48 -38q-76 -82 -143.5 -113t-116.5 -24.5t-72.5 43.5
t-9.5 90zM178 73l20 15l1 303l-17 -11q8 24 13 60.5t3 89.5l-1 193q-55 23 -118 17.5t-119 -26.5q-26 -14 -52.5 -30t-40.5 -44q-31 -46 -35 -102t17 -107q12 -28 35.5 -47t52 -28.5t58.5 -7t57 17.5q32 19 55 53t35 72t10.5 73t-19.5 56q-17 19 -41.5 25.5t-45.5 2
t-33.5 -20t-5.5 -43.5q5 -21 18 -27.5t26 -6.5q-4 -6 -11.5 -7.5t-16.5 0t-17.5 5.5t-13.5 11q-16 24 -11.5 48.5t23.5 41t50 21.5t66 -9q25 -11 40 -35t15 -52q1 -46 2 -88t1 -73v-71v-269z" />
    <glyph glyph-name="U" unicode="U" horiz-adv-x="542" 
d="M342 92l1 -212q0 -29 -18.5 -51t-47 -34.5t-61.5 -14.5t-62 10.5t-47.5 40t-18.5 73.5l18 1q2 -38 19 -62.5t41 -34.5t52 -9.5t52 12t39 31t15 47.5v190q-22 -16 -45 -32.5t-47.5 -29t-51.5 -18t-56 -1.5q-19 0 -36 7.5t-31.5 18t-28.5 23t-28 23.5q5 16 14 29t9 31
q2 122 0 245h-21q11 30 15.5 61.5t5 62.5t0 62.5t-0.5 63.5q-23 -19 -50.5 -36t-56.5 -26.5t-59 -8.5t-58 20v19q27 -24 63.5 -23.5t64.5 18.5q28 19 50.5 42.5t44 49.5t43 51t47.5 46q26 19 60.5 18t63.5 -11q2 -4 3.5 -9.5t3.5 -8.5q-32 3 -60 -12q-8 -17 -15.5 -33.5
t-9.5 -35.5q-6 -59 -5.5 -117t0.5 -117q6 3 13 7t13 8q-19 -48 -24.5 -98.5t-2.5 -101.5q1 -33 0 -67t5 -67q1 -12 12 -26t31.5 -20.5t52.5 -1.5t75 32q-1 113 -2 225.5t1 226.5q-9 -10 -21 -18.5t-25 -12.5t-26.5 -2.5t-25.5 11.5q-30 26 -30 69.5t24 85.5t69.5 72.5
t106.5 32.5v-434l12 433q30 -3 45.5 -10.5t28.5 -15t32 -12.5t56 -2q-6 -10 -17.5 -12.5t-24.5 -2.5t-26.5 -0.5t-24.5 -5.5v-227l24 1q-12 -8 -17.5 -16t-7.5 -17t-1.5 -17.5t0.5 -17.5l3 -289q3 -21 17.5 -37t33.5 -27t41 -16t42 -4l-171 -80l-2 57q-3 9 -6 5
q-3 -2 -4 -15t1 -48q-19 4 -32.5 16t-21.5 28t-13 35t-7 36zM343 137q6 9 12.5 19.5t4.5 22.5l1 475q-2 22 -4.5 45t-21.5 38q-22 8 -41.5 0t-36.5 -20q-24 -32 -32 -59.5t-6.5 -49.5t11.5 -36t22 -19q10 -3 27 3t28.5 20t11 35t-27.5 50q20 -2 30 -14t14.5 -31t5 -41.5
t0.5 -45.5q1 -99 0 -195.5t2 -196.5z" />
    <glyph glyph-name="V" unicode="V" horiz-adv-x="555" 
d="M659 800q36 -22 43.5 -52.5t-9.5 -65.5q-21 -40 -47 -59.5t-50 -28t-44 -10.5t-28 -7q-4 -6 -15 -33.5t-25.5 -68t-33 -91.5t-37 -102.5t-36 -101t-31.5 -88t-22 -63.5t-9 -27l-125 341l-26 -25q9 33 7 60t-15 66l-91 251q-8 9 -21.5 16t-29 11t-30.5 4.5t-25 -3.5
q-17 -10 -27.5 -25t-16 -32.5t-6.5 -37.5t1 -37q5 -32 19.5 -63.5t46.5 -44.5q6 -2 19.5 -3t26 6.5t21.5 25.5t8 54q10 -28 1.5 -54.5t-27 -40.5t-45 -10t-54.5 40q-21 26 -32 64.5t-6 79.5t27.5 79.5t69.5 65.5q17 10 32.5 13t30 2t30.5 -4t35 -5l4 -18l5 18q13 0 28 1.5
t33 3.5q10 1 24 8t24 17t10.5 22t-17.5 25q19 -9 23 -20t-1 -23.5t-15 -25t-20 -25.5t-16 -27t-2 -27l78 -254l17 24q2 -31 4.5 -61.5t13.5 -60.5l52 -153l1 613q0 16 -5 24.5t-11 8t-11 -9t-5 -24.5h-16q0 24 10 36t21.5 12t21.5 -11.5t10 -34.5l1 -595l124 342
q-34 5 -61.5 15t-52.5 35l72 107q11 -37 28.5 -58.5t39 -30t44.5 -6t43 10.5t36 19.5t25 22.5q6 6 9.5 16t3.5 23t-6 29.5t-21 35.5zM212 404l-0.5 20t-1 46.5t0 52t2.5 35.5h-1h-1q-2 -9 -2 -32.5t0.5 -49t1.5 -47t1 -25.5zM273 366q0 -25 6.5 -50.5t7.5 -50.5
q0 25 -5.5 50.5t-5.5 50.5q0 1 -1.5 1t-1.5 -1z" />
    <glyph glyph-name="W" unicode="W" horiz-adv-x="712" 
d="M790 705q16 -53 8.5 -110.5t-36 -106t-76 -79.5t-107.5 -28q2 -68 -13.5 -131.5t-40 -114.5t-54.5 -86.5t-55 -46.5q-13 -5 -34 2t-42.5 19.5t-40.5 28t-27 27.5v-218q0 -4 -2 -13t-7 -20t-14 -22.5t-23 -20.5q-16 -7 -32.5 -9.5t-31 1t-24.5 11t-11 19.5q-4 27 2.5 40.5
t16.5 18.5t20 4t14 -3v-19q-13 8 -21.5 5t-12.5 -11t-4 -19t4 -19q7 -11 24.5 -14t36.5 4t33 26.5t14 55.5q-1 49 -0.5 97.5t-0.5 97.5q-11 -15 -25.5 -29t-31 -24.5t-35 -15.5t-38.5 0q-18 8 -33 20t-30 25.5t-30.5 24t-35.5 16.5q18 15 25 35t9.5 41.5t1.5 44t0 42.5v16.5
t-2 16.5t-7 11.5t-17 2.5q8 20 17 55.5t12.5 72t1.5 65.5t-15 36q-22 9 -38 2t-33.5 -16.5t-40 -17t-57.5 0.5q22 3 47 16q21 9 45.5 27t47.5 48q20 25 33.5 52.5t37.5 49.5l12 -404l3 417q12 17 38.5 29t56.5 15t60 -3t48 -24q15 -17 20.5 -34.5t6 -35.5t-2 -35t-3.5 -33
h72q5 40 15.5 59.5t21.5 29t21 14.5t16 17q37 73 86.5 107t99 32t92 -37t65.5 -98zM277 582q7 25 11.5 52t-8.5 52q-6 17 -21 27t-32 12.5t-33.5 -2.5t-27.5 -19q-15 -15 -16.5 -36t-5.5 -40q6 -29 5 -57t-3 -56.5t-3.5 -57t0.5 -57.5h13.5t11.5 2q-11 -32 -16 -64.5
t-6.5 -65.5t-1.5 -66t-2 -66q4 -9 10.5 -23.5t18.5 -25t29 -12t42 15.5q0 110 0.5 218t-0.5 218q-4 -1 -18 -4t-29 -3t-26.5 6t-12.5 23q0 24 8 44q3 -14 5.5 -28t9.5 -22t21.5 -9t42.5 10l-1 33zM577 400q57 2 101.5 34t70 79.5t29 102.5t-22.5 101q-29 46 -58 60t-55 9
t-44.5 -23t-25.5 -37q55 -2 84.5 -27.5t29.5 -79.5q0 -32 -13 -52.5t-28 -33.5q-19 -14 -41 -21l-1 14q32 11 49.5 35.5t17.5 68.5q0 26 -27.5 48t-83.5 22q-8 -52 -6 -89t7.5 -69t11 -65t5.5 -77zM377 165q0 -21 13.5 -40.5t31 -28.5t36.5 -2.5t31 39t13 94t-17 164.5
q-43 14 -66 43t-42 71q0 -86 0.5 -170t-0.5 -170zM433 662q-25 -12 -36.5 -46t-7 -73.5t26.5 -76t64 -52.5q-7 27 -16 53.5t-17 55.5t-12.5 62.5t-1.5 76.5zM74 180q0 6 -2.5 6t-2.5 -6v-46q0 -5 2.5 -5t2.5 5v46zM352 312q2 0 2 5.5t-2 5.5h-18q-2 0 -2 -5.5t2 -5.5h18z
M305 447q0 -3 0.5 6t1.5 21q1 13 3 31q0 5 -2.5 5t-2.5 -5v-58z" />
    <glyph glyph-name="X" unicode="X" horiz-adv-x="630" 
d="M455 386q27 38 61.5 53.5t68.5 14t62 -19.5t42 -49q22 -39 28.5 -91t-3 -105t-35.5 -98.5t-69 -71.5q-46 -23 -98.5 -17.5t-94.5 34.5q2 -40 20 -78t51 -63q17 -12 44.5 -18.5t53.5 -2.5t44 20.5t17 51.5l17 2q1 -33 -14.5 -55.5t-40.5 -32.5t-54 -7t-56 18
q-26 13 -44.5 33t-31 45t-19.5 52.5t-9 53.5q-23 22 -45.5 42t-36.5 50q-2 22 -2 47t-1 46q0 -3 -4.5 -23t-6.5 -38q-8 9 -19.5 28.5t-23 42t-22.5 45t-17 37.5q-17 -28 -33.5 -57t-33.5 -56l-34 -61l41 -17q31 -16 54.5 -38t43.5 -48l-119 -94q4 42 -4 71.5t-18 47.5
q-12 21 -27 33q-19 -25 -47.5 -52t-54.5 -38q-61 -22 -98.5 -15t-55.5 29t-18.5 51t12.5 48q22 31 57 39t70 11q39 4 76.5 -6t76.5 -13q23 48 49 89.5t50 88.5l-16 32l-23 -14q2 19 2 36t-9 36q-13 31 -27.5 68.5t-32.5 69.5t-38 52.5t-42 19.5q-19 1 -30.5 -7.5
t-19.5 -19.5t-13.5 -21t-9.5 -11q-1 27 12.5 52.5t36 46.5t51 35t56.5 17t51.5 -5.5t36.5 -33.5l98 -203l87 144q-25 9 -45.5 23t-33.5 36q28 27 55.5 53.5t55.5 53.5q4 -34 25 -59t51.5 -38.5t64 -13.5t61.5 16t46 50.5t17 90.5q9 -11 11.5 -35.5t-6 -53.5t-30.5 -59
t-63 -50q-46 -18 -94.5 -22.5t-97.5 4.5q-11 -21 -23 -41.5t-24 -40.5q-6 -13 -15 -25.5t-15.5 -26t-8 -27t4.5 -28.5l25 20q5 -42 11 -71t14.5 -49t18.5 -38t24 -40q16 64 52 118zM691 221q2 42 0 85.5t-27 78.5q-14 26 -41 42t-58 11q-25 -2 -44.5 -13.5t-35.5 -29.5
t-28.5 -39.5t-20.5 -42.5q-6 -18 -10.5 -36.5t-6.5 -37.5q24 -37 49.5 -73.5t61.5 -64.5q12 -9 27.5 -14t31 -5t29.5 5t25 18q26 22 36 53t12 63zM-161 54q15 -20 37.5 -25.5t47.5 -0.5t51.5 16.5t48.5 26.5t36 30t16 26q-22 13 -49.5 21t-55.5 11t-56 -1.5t-51 -15.5
q-22 -11 -31.5 -38t6.5 -50z" />
    <glyph glyph-name="Y" unicode="Y" horiz-adv-x="540" 
d="M495 150q1 -103 -26.5 -176t-75.5 -126q-34 -38 -74.5 -59t-80.5 -29t-79 -3t-71 20t-55.5 37.5t-32.5 50.5q-18 66 -9 106t30 60.5t47.5 24t43.5 -3.5q36 -22 45.5 -46.5t3.5 -43t-23 -28t-35 -1.5l-8 22q17 -2 28.5 5t14 18t-6.5 24t-32 26q-25 9 -45.5 -1.5
t-31.5 -34.5t-10 -59.5t19 -76.5q14 -24 45.5 -45.5t72 -25.5t88.5 17.5t95 83.5v305q-13 -8 -33 -22.5t-43.5 -27.5t-48.5 -22.5t-49 -9.5q-21 1 -41.5 10.5t-40 21.5t-36 24t-28.5 20q25 15 25 49q1 67 0 135q-5 -3 -13 -5t-13 -3q25 66 26 134t0 136q-33 -29 -66.5 -48.5
t-63.5 -25.5t-56 3.5t-45 36.5q5 -3 21 -13.5t40.5 -13t56 10.5t67.5 57q35 41 67.5 79t65.5 61t66.5 24t71.5 -32q-10 0 -26.5 0.5t-32 -9.5t-27 -36.5t-11.5 -81.5v-190l31 10q-1 -2 -6 -13t-11 -24t-11 -26t-5 -18v-42t1 -43t3.5 -39t9.5 -31q7 -12 19 -21t30.5 -10.5
t44 7t58.5 31.5v335q-17 -17 -36.5 -25.5t-43.5 -0.5q-23 6 -34 27.5t-10.5 50.5t12 61t33.5 59.5t54.5 46t73.5 19.5l-1 -133h7l-1 133q31 0 49 -2.5t30.5 -7.5t22 -10.5t21.5 -10.5t29.5 -7.5t47.5 -1.5q-19 -16 -42.5 -17t-45.5 -2v-144h-20q-2 0 -2 -6t2 -6h20v-275h-16
q-3 0 -3 -6.5t3 -6.5h16v-154zM343 248l21 24l-1 408q0 10 -2 21.5t-7 21.5t-14 16t-21 6q-19 -2 -36.5 -15.5t-31.5 -33.5t-23 -42.5t-9.5 -42.5t10 -35.5t34.5 -18.5q24 -5 36.5 9.5t15.5 33.5t-2.5 37.5t-16.5 22.5q4 0 12.5 -1t16 -5t13 -11t5.5 -18v-377zM366 113
q0 54 1 121l-23 -32v-301q7 5 11 16q5 9 8 24.5t3 37.5v134zM389 632q0 6 -2 6t-2 -6v-46q0 -5 2 -5t2 5v46zM475 417q0 5 -2 5t-2 -5v-43q0 -5 2 -5t2 5v43z" />
    <glyph glyph-name="Z" unicode="Z" horiz-adv-x="744" 
d="M851 34q21 24 40 27t33 -8.5t21.5 -35t5 -49t-16.5 -51.5t-43.5 -44.5t-75 -26.5t-111.5 3l66 -32q-42 -10 -75.5 -5.5t-62.5 18t-56 32t-57 38.5l-9 -50q-19 39 -50 73t-68.5 63.5t-79 55.5t-84.5 47q-34 -32 -71.5 -51.5t-73.5 -28t-66.5 -7t-50.5 12.5q-9 5 -15 17
t-2.5 27t21 32t58.5 33q102 41 210 37l150 189h-167l95 86h142l174 220q-72 -19 -145.5 -18.5t-147.5 5.5q-30 3 -59.5 11t-59.5 15t-60 9.5t-60 -6.5q-13 -3 -25 -13t-20 -28t-9.5 -45.5t7.5 -67.5q4 -22 30.5 -40.5t58.5 -24t64 8t48 55.5q-4 -49 -31 -71t-61.5 -22
t-71.5 20t-61 54t-28.5 80.5t23.5 99.5q28 50 70.5 77.5t93 37.5t104.5 6t105 -15.5t95 -28t72 -30.5q15 -6 38 -7.5t47.5 -1t48 4.5t37.5 11l-240 -296h201l-90 -86h-178l-153 -193q59 -13 95.5 -26.5t62 -28t47 -30.5t51.5 -34l4 42q75 -76 136 -115.5t106 -52.5
t75.5 -5.5t48.5 25.5t22.5 41.5t-2.5 41.5t-24.5 25.5t-45.5 -6.5zM-12 30q53 -9 104 3.5t101 64.5q-52 19 -99.5 13.5t-79.5 -21.5t-41.5 -34.5t15.5 -25.5z" />
    <glyph glyph-name="bracketleft" unicode="[" horiz-adv-x="221" 
d="M174 821l-76 -12v-824l76 15v-14l-127 -21v846l127 25v-15v0z" />
    <glyph glyph-name="bracketright" unicode="]" horiz-adv-x="222" 
d="M47 821v15l127 -25v-846l-127 21v14l76 -15v824l-76 12v0z" />
    <glyph glyph-name="a" unicode="a" 
d="M246 454q0 3 -0.5 -19t-0.5 -59.5t0.5 -85.5t2.5 -98t5 -98t9 -84l-7 -3l-36 34v48l-99 -90q-20 19 -42.5 30.5t-41.5 32.5q-12 15 -16.5 32t-4.5 35t2.5 36.5t2.5 36.5q0 27 -3 56t-5 54q-4 29 -8 57q21 -6 40 -0.5t37 15.5l4 20q-19 2 -34.5 13t-20.5 26
q-15 36 -7.5 60t26.5 41t46.5 28.5t54.5 20.5t49.5 17t31.5 18q13 15 18.5 20.5t6.5 7.5q1 1 -1 -3l-24 -44l30 31q6 -16 12 -30q5 -12 9 -21.5t4 -12.5q12 4 19.5 0t12.5 -11.5t7.5 -18t3.5 -19.5l-1 -108l18 -43l-17 -36q-1 -34 -1 -65v-96q0 -31 22.5 -55.5t54.5 -25.5
l-139 -85q-9 55 -11 109.5t-2.5 109t-1 110t-5.5 112.5zM66 190q12 31 12.5 62.5t-7.5 63.5q-2 5 -3.5 1t0.5 -6q3 -14 3 -35.5t-1.5 -40.5t-3 -32.5t-0.5 -12.5zM179 107q10 4 19 9.5t19 11.5q-2 76 -1 145t-1 144q-14 -7 -28 -16t-25.5 -20.5t-19.5 -26.5t-8 -33
q0 -9 -0.5 -28t0 -43t3 -49.5t7 -46.5t13 -34.5t22.5 -12.5zM217 447q2 28 -2.5 56.5t-24.5 51.5l29 3q-7 11 -18.5 13.5t-33.5 0.5q-35 -2 -60.5 -16t-39.5 -33t-17.5 -39.5t5.5 -36t29.5 -23t54.5 -0.5q11 3 15.5 21.5t-0.5 33.5q-8 25 -26.5 19t-28.5 -34q-2 27 7.5 38.5
t22 12t25.5 -7.5t19 -20q10 -30 -1 -60z" />
    <glyph glyph-name="b" unicode="b" horiz-adv-x="345" 
d="M359 849q24 -20 25 -36.5t-13.5 -29t-41.5 -20.5t-59 -12t-68 -2.5t-67 9.5q-10 -26 -14 -54t-4.5 -56t0.5 -56t1 -55q27 10 42 15l24 8t15.5 7.5t17.5 12.5q9 -6 16.5 -10.5t15.5 -9.5v-116.5v-97.5t0.5 -67t0.5 -24q0 76 4 151.5t-1 151.5q12 -7 21.5 -14t13.5 -19
q7 -15 9 -30t2 -31t-0.5 -31.5t0.5 -30.5l18 -39l-19 -36q0 -36 0.5 -57t2 -33.5t4 -18.5t5.5 -11t7.5 -11.5t10.5 -19.5q-17 -9 -35 -16.5t-35.5 -16.5t-33.5 -19.5t-29 -25.5q-23 -25 -48.5 -49t-47.5 -49q-1 14 -9.5 23t-19.5 15.5t-22 13.5t-17 18l-10 -46l-2 99h1
l-1 214q-8 14 -17 25l20 31l1 286q2 25 12 49t20 50q-33 6 -67 14.5t-69 14.5t-69.5 7.5t-68.5 -3.5q-15 -4 -30.5 -10.5t-28 -17.5t-20.5 -25t-8 -33t17.5 -37.5t64.5 -24.5l-15 -18q-24 0 -41.5 9t-28 23t-14.5 30t0 29q12 35 43 56.5t67 29.5q35 6 70.5 5t71.5 -6.5
t71.5 -13.5t70.5 -15q30 24 71 41t82 25.5t77.5 6t57.5 -15.5zM189 483q-12 18 -32.5 20t-38.5 3l1 -109l15 -31l-15 -28l1 -164q0 -29 11.5 -38t27 -7.5t31.5 9t25 14.5q-6 6 -11 12t-10 14q0 37 1 73.5t-1 74.5q0 12 -8 20.5t-13 17.5l15 19q6 25 6.5 50t-5.5 50zM148 771
q47 -9 86 -7t66.5 10t41.5 19.5t11.5 23t-24.5 19.5t-66 8q-9 -1 -25 -3.5t-33 -10t-33 -21.5t-24 -38z" />
    <glyph glyph-name="c" unicode="c" horiz-adv-x="332" 
d="M212 129q16 0 28 6.5t22 17t18.5 22.5t17.5 22q4 1 11.5 1.5t11.5 0.5q-38 -54 -62 -84t-41 -49t-29.5 -32.5t-27.5 -34.5q-4 15 -14 25t-22.5 18t-26 13.5t-25.5 11.5q-6 83 -8 165.5t-3 164.5q-3 -42 -6 -83t-2 -83q-2 -40 3.5 -78.5t3.5 -77.5q-14 5 -25.5 16
t-21.5 33l-2 203l-10 29l7 29v89q0 9 -2 17t-7 19q46 17 95 42q13 6 26.5 14.5t30.5 9.5q16 -3 30.5 -12t28 -18.5t27.5 -18.5t30 -13q10 4 20.5 18.5t19.5 34t13.5 42t1.5 45t-15.5 42t-36.5 31.5q-19 9 -37 0t-34 -21l-2 32q9 3 21.5 6.5t28 2t33.5 -11t37 -33.5
q8 -13 12 -24t4.5 -26t-2.5 -36t-11 -53l-9 1q0 -6 2.5 -16t-3.5 -19q-22 -30 -33 -44.5t-19.5 -27.5t-19 -30t-32.5 -50q-18 -29 -19 -57.5t6 -35.5q16 -13 34 0q5 22 -2 40q4 0 5.5 -0.5t6.5 -1.5q2 -12 3 -24t-8 -24q-23 -17 -47 -1q-9 16 -9.5 30.5t3 29.5t9 33t8.5 42
q-22 29 -48.5 50.5t-54.5 39.5l25 -33l2 -79l7 -28l-9 -27v-146q0 -6 8.5 -14.5t22 -17.5t30 -16t32.5 -8z" />
    <glyph glyph-name="d" unicode="d" 
d="M276 799q70 41 126.5 59t97 18.5t65.5 -12.5t32 -30t-4 -35t-42 -29q-16 -5 -30.5 -9t-36 -7t-54 -2.5t-82.5 4.5q0 -4 1 -9.5t2 -9.5l-24 -8v-332l8 -42l-14 -49v-121q11 -29 33.5 -48.5t47.5 -38.5l-129 -98q-12 22 -24 43t-21 45q-23 -21 -48.5 -43t-45.5 -45l-77 54
h-21q-2 62 -1 126t1 126q1 15 -4.5 24.5t-7.5 24.5q14 38 13 77.5t-16 75.5h-16l9 14l61 17q2 -22 1 -44t-3 -44q9 46 9 91l138 40q1 45 1.5 70.5t4.5 44t12 36.5t25 48q-59 13 -110.5 23.5t-94.5 14t-77 -1t-60 -21.5q-17 -14 -26 -36t-6 -42.5t22.5 -34.5t58.5 -14l-5 -20
q-22 -6 -44.5 3.5t-37 29t-15.5 44.5t20 52q24 29 61 43t78.5 16t83.5 -3.5t77 -13t59 -14.5t29 -7zM183 112q10 -1 20 2t20 5v187l-13 49l12 42v156q-20 -9 -39 -23t-28 -36q-9 -35 -5.5 -70t15.5 -69q-6 -12 -9.5 -27.5t-5.5 -39.5t-1 -59t3 -88q0 -10 10 -17t21 -12z
M354 777q7 0 36.5 -4t66 -3.5t71 10.5t52.5 37q3 5 -6 15.5t-29 17.5t-51.5 6.5t-73.5 -17.5q-20 -12 -38.5 -26t-27.5 -36z" />
    <glyph glyph-name="e" unicode="e" horiz-adv-x="328" 
d="M20 108q-2 51 -1 101.5t-1 99.5q0 13 -6.5 24t-11.5 23q11 18 13.5 37.5t1 38.5t-6 38.5t-7.5 37.5q18 6 31.5 9.5t32.5 8.5l12 -40q-1 8 -1.5 23t-0.5 22q19 6 37 12.5t35 14.5l20 10t20 11q10 -11 30.5 -47t40.5 -75q25 -47 51 -102q-9 -5 -33.5 -19t-53.5 -28.5
t-57 -28t-41 -17.5v-88q11 -9 24 -20t26 -20t27.5 -12.5t29.5 0.5q17 8 31.5 22t23 31.5t9 36.5t-9.5 37q-9 13 -19 19.5t-28 4.5q-26 -5 -38.5 -14t-10.5 -28q1 -18 10 -23.5t16 -3.5t8 9.5t-13 17.5q6 6 14 7.5t17 -7.5q5 -5 7.5 -18.5t-9.5 -21.5q-50 -25 -62 36
q-4 19 13 37t40.5 21.5t47.5 -11t34 -61.5q4 -19 -6.5 -40t-28 -41.5t-37.5 -41t-35 -38.5q-7 -12 -12 -25t-6 -27q-34 20 -68 38.5t-69 37.5l-4 -22q-4 3 -8 7t-8 6l-4 35l17 17zM124 483q-2 -50 -1.5 -100t1.5 -99q19 10 36.5 20.5t36.5 21.5q-12 41 -31.5 79.5
t-41.5 77.5z" />
    <glyph glyph-name="f" unicode="f" horiz-adv-x="378" 
d="M344 569q20 -6 20.5 -20t-3.5 -20q-13 -19 -32 -10.5t-29 12.5q-6 -15 -16.5 -28t-21.5 -26q31 2 66 10q-6 -14 -14 -29.5t-24 -20.5q-19 -6 -37.5 -4t-37.5 2l53 -9q-8 -13 -21 -16.5t-25.5 -3.5t-27 2t-27.5 0q-2 -26 2 -52t16 -50q-12 -18 -15.5 -38t-2 -41.5t5 -42.5
t5.5 -41q6 -11 16.5 -20t21 -17t19 -16.5t14.5 -21.5q-10 0 -18.5 -0.5t-15.5 -3.5q-18 -21 -41.5 -36t-44.5 -30v15q-21 -4 -29 13t-13 29q-14 35 -14 70.5t6 69.5q-6 29 -3.5 58t-16.5 54q12 22 15.5 46t1.5 50q-20 -4 -39 -4t-37 3q8 17 13 36.5t15 40.5h24t26 -2
q2 33 1.5 68.5t-8.5 68.5q-9 13 -18.5 25.5t-14.5 28.5l180 80l1 20q34 -24 68 -44.5t65 -47.5q35 32 53.5 70t24.5 70t-3 57.5t-24.5 36t-40 1t-54.5 -43.5q1 16 1 32t17 27q19 10 43 10t41 -13q34 -35 36 -73.5t-14.5 -77t-42 -75.5t-46.5 -69t-27.5 -57t15.5 -38
q12 -7 18.5 7t-5.5 29zM240 492q12 3 25 18t21 36.5t6 49t-19 55.5l5 -52q-28 24 -58.5 46.5t-63.5 43.5q11 -32 12 -64.5t-1 -64.5q12 22 33 26.5t43 -0.5q18 -7 18 -27t-9 -21q-17 -5 -29 -2.5t-18 16.5q10 -6 26.5 -8t11.5 7q-4 17 -13 23t-16.5 6.5t-14 -2.5t-6.5 -4
q-17 -17 -17.5 -32.5t9 -29t25.5 -19.5t30 -1zM127 86q0 -5 1 -5t1 5q0 81 -8 161.5t-4 162.5q0 3 -2 3t-2 -3q-3 -82 5.5 -162.5t8.5 -161.5z" />
    <glyph glyph-name="g" unicode="g" horiz-adv-x="330" 
d="M306 190q-2 -38 1.5 -76.5t1.5 -77.5q2 -31 4 -60t-1 -59q-5 9 -9.5 18l-9.5 19l12 31q-11 -15 -16 -32.5t-10 -35.5q-8 -20 -19 -40t-30 -33q-1 -4 -2 -9.5t-4 -7.5q-41 -38 -93.5 -54.5t-99.5 -15.5q-22 1 -41.5 8t-32.5 25q-11 15 -15.5 33.5t-6.5 36.5
q-31 -17 -65 -35.5t-69 -32.5q-36 -15 -78.5 -24.5t-81.5 0.5q-11 3 -20.5 7.5t-18.5 13.5q-16 13 -23 35.5t-3.5 45.5t18 42t43.5 25q21 6 40 2q-9 -3 -18.5 -6t-18.5 -8q-21 -11 -30.5 -27.5t-11.5 -33.5t3.5 -32.5t15.5 -24.5q14 -14 37 -17t47.5 -0.5t48.5 9.5t43 14
q36 13 71.5 29t70.5 34q3 17 11 30q15 26 43.5 33t52.5 -3q16 -6 24 -19t9.5 -27t-2 -28t-9.5 -22q-8 -11 -18 -14.5t-20 -3t-17 5t-10 10.5t-2 12t3 10t4.5 6t4.5 4q-18 6 -31 5q-12 0 -23 -6q0 -12 1.5 -23.5t6.5 -22.5q8 -25 26 -35t43 -11q54 -5 89.5 19t54.5 68
q11 26 16 54t6.5 56.5t1 58t-0.5 57.5q-6 -4 -9 -9q-21 -18 -37.5 -39t-34.5 -40q-11 13 -26 23.5t-28.5 21.5t-24 25t-14.5 34q-3 46 0 91t5 90q0 11 -4 21t-7.5 20t-5 20.5t4.5 20.5q13 35 9.5 74.5t-26.5 69.5q43 15 88 26.5t88 30.5q13 6 27.5 8t29.5 2q12 -9 27 -16
t24 -23q14 -22 17 -46t3 -49t1 -50t13 -48q-10 -18 -12.5 -38t-2.5 -39.5t1.5 -40t0.5 -40.5zM199 133q-1 42 0 82t0 82q0 14 -6 26t-13 25q16 34 19 72t-15 72q-6 9 -13.5 13.5t-16.5 7t-19 4t-17 3.5q9 -14 10.5 -30.5t0.5 -34t-1 -34.5t6 -33q2 -10 7 -19.5t3 -20.5
q-10 -26 -13.5 -52.5t-3.5 -53t2.5 -53.5t5.5 -54q0 -6 8 -11t18.5 -6t21 2t16.5 13zM-36 -105q-3 -2 -4 -5t-3 -7q6 1 10.5 2t10.5 1q20 -2 40 -13l5 -2l-5 -3q-9 -7 -11 -12q-5 -8 -2 -13q3 -6 13 -9q3 -1 7 -1h7q14 3 23 15q7 11 7 28v7q0 5 -1 7q-3 9 -5 13
q-6 11 -20 17q-15 3 -27 2q-17 -2 -27 -8q-12 -6 -18 -19zM273 509q0 4 -2 6t-3 -3q-6 -47 -9 -107.5t-3 -123t2.5 -123t4.5 -107.5t3.5 -75t1.5 -27q0 71 -3 140.5t-5 140t0.5 140.5t12.5 139z" />
    <glyph glyph-name="h" unicode="h" horiz-adv-x="414" 
d="M404 105q-18 -11 -34.5 -23.5t-38.5 -12.5q1 -2 2 -6.5t4 -6.5q-18 -12 -35.5 -24.5t-37.5 -21.5q-24 20 -32 48.5t-5 59.5q-3 0 -7 -0.5t-8 -0.5q-1 29 0 59.5t1 60.5t-2.5 59.5t-10.5 57.5l13 33q4 11 4.5 33t-7.5 41t-27 28t-56 -5q1 -23 0.5 -48.5t0.5 -48.5l16 -38
q-9 -12 -14.5 -25t-2.5 -30q0 -29 1.5 -60.5t3.5 -60.5q3 -29 23.5 -47t44.5 -27q-11 -11 -22.5 -20t-26.5 -10q-16 -22 -36 -36t-38 -33q-21 35 -32.5 73t-17 71.5t-6 61t0.5 43.5q0 25 -1 51t-17 48q7 13 12 18t5 21q1 84 0 136.5t-1.5 85.5t0 51t5 31t13 28t24.5 42
q-38 9 -74 18t-75 14v-1q-21 3 -45.5 3t-49.5 -3t-48.5 -9.5t-41.5 -16.5q-17 -10 -24.5 -25t-7 -30t8 -28t19.5 -22q9 -7 18.5 -11.5t22.5 -11.5v-1q-29 -8 -52 8q-17 9 -25 25t-9.5 34t4 34.5t16.5 27.5q22 19 55.5 29t61.5 14q40 4 75.5 2t67 -7.5t58.5 -12.5t47 -10
q13 -3 22.5 5t19.5 14q23 16 47.5 27.5t53.5 16.5q49 6 94 2t71 -17t25 -32.5t-45 -42.5q-35 -14 -64.5 -18t-55 -3.5t-48.5 3.5t-47 7q-14 -59 -11.5 -118.5t2.5 -118.5q24 21 50 39.5t51 37.5q1 -3 1 -9v-10q27 0 43.5 -10.5t26 -28t13.5 -39t5.5 -41t1.5 -36t3 -23.5
l10 -31q-5 -17 -8 -24.5t-3.5 -22t0 -44.5t1.5 -91q0 -8 8 -18.5t19.5 -20.5t26 -18t27.5 -11zM151 766q23 -11 60 -13t71.5 3.5t59 16t23.5 22.5q-2 18 -15 26t-32.5 11t-42 1t-43 -7t-37 -10.5t-22.5 -9.5v-19zM99 125q9 53 -1.5 105.5t-18.5 104.5q-9 62 -9 123.5
t-3 124.5q0 2 -0.5 -23t0.5 -62.5t2 -79t5 -70.5q2 -28 7.5 -55.5t10.5 -54.5t6.5 -55t-2.5 -55q-1 -3 0.5 -5.5t2.5 2.5zM271 484q0 1 0 -15.5t-1 -44.5t-1.5 -63t-0.5 -73q-1 -87 -1 -199q0 -4 2 -4t2 4v395z" />
    <glyph glyph-name="i" unicode="i" horiz-adv-x="252" 
d="M133 42q-6 -4 -7.5 -9t1.5 -11t6.5 -12t6.5 -10q-9 8 -18.5 14.5t-21.5 9.5q-6 16 -15.5 29t-21.5 25v45l-8 -5q2 19 0.5 39t-2 40t0.5 39t10 38l-10 -1q0 9 0.5 23.5t-1 29t-5.5 25t-13 10.5q12 9 18 21.5t8 26t1 28.5t-1 28q-3 20 -10.5 29t-17 12t-19 2.5t-14.5 -0.5
q32 19 70.5 36.5t70.5 35.5q14 -9 17.5 -34t4 -57t2 -66.5t12.5 -60.5q-16 -43 -20 -91.5t18 -91.5q3 -10 11 -17.5t17 -14t19 -12.5t18 -13zM92 595q0 17 -6 30t-15 24.5t-20 22t-21 20.5q22 21 43 42.5t40 42.5q15 -23 30.5 -44.5t35.5 -40.5q-15 -29 -40.5 -50.5
t-46.5 -46.5zM120 415q-11 -39 -10.5 -93.5t6 -104.5t11.5 -84.5t6 -32.5q-4 33 -9.5 73t-9 82t-2.5 82t11 72q1 2 0 6t-3 0z" />
    <glyph glyph-name="j" unicode="j" horiz-adv-x="254" 
d="M233 54q-14 -60 -37.5 -116t-62.5 -98q0 2 -1 4q-2 4 -3 4v-13q-19 -19 -41.5 -34.5t-51.5 -24.5q-43 -17 -86.5 -18t-78.5 14t-58 43.5t-24 71.5q-41 -11 -76 -29.5t-74 -33.5q-46 -19 -84 -17t-64.5 16t-41 36.5t-13.5 46.5t18 43.5t53 28.5l20 -18
q-39 -11 -53.5 -29.5t-15.5 -37t6.5 -34t15.5 -20.5q36 -25 75.5 -21t80.5 19.5t80 34.5t72 25q0 17 9 34t31 23q11 2 24.5 3t26 -0.5t23.5 -7.5t17 -18q16 -31 5.5 -49t-28 -23t-34.5 4t-14 35q-24 2 -43 -6q4 -22 12.5 -44.5t28.5 -37.5q24 -19 54.5 -25.5t60.5 -2
t57.5 18t48.5 35.5q24 29 37.5 62.5t19.5 69.5q0 -19 1.5 -38t1.5 -39q2 4 3 6.5t0 10.5l-3 83q2 9 2 17t1 17q-1 0 -1.5 0.5t-1.5 0.5v32q2 38 8 74t8 74q5 67 -11 128q-1 6 -2.5 2t-0.5 -6q8 -35 10 -69.5t-2 -70.5q-2 -28 -7 -56t-7 -57v-49q-13 5 -24.5 14t-18.5 22
q15 33 4 70q-4 30 -3 59.5t2 59.5t-2 59t-14 58q19 50 14 101q3 0 5 0.5t4 0.5q-15 12 -27.5 23t-28.5 22q31 14 60 30t60 28l8 15q1 -8 1 -17.5t1.5 -18t6 -15t15.5 -7.5q1 -18 0.5 -37t0 -37.5t3.5 -37t9 -36.5q5 -12 2.5 -23t-7 -21.5t-7.5 -22t-1 -22.5q3 -58 0 -116
t8 -115q10 -2 19.5 -5t19.5 -5zM179 701q-20 -22 -40 -43t-41 -43q-14 24 -33 44.5t-37 41.5q19 22 40 43t40 43q15 -25 32 -46.5t39 -39.5zM-99 -125q15 17 13.5 31t-13 22.5t-29 12t-33.5 0.5t-27 -12.5t-8 -26.5q8 2 23.5 3t22.5 1l6 6q6 7 13 7q17 0 20 -8t5 -12
q-21 6 -28 0.5t-5 -19.5q1 -4 6.5 -7t12 -3.5t12.5 0.5t9 5z" />
    <glyph glyph-name="k" unicode="k" 
d="M632 -6q6 -12 7 -26.5t-11 -24.5q-12 -12 -27 -18t-31.5 -9.5t-33 -4.5t-31.5 -3l10 -13q-65 -1 -121.5 29.5t-91.5 84.5q-46 86 -89.5 157.5t-89.5 141.5q-2 -35 -2 -70.5t6 -70.5q6 -28 23.5 -47.5t46.5 -21.5q-29 -19 -56 -39.5t-51 -38.5l-3 343l-10 -350l-9 -9
q-3 19 -12.5 33.5t-39.5 26.5v104.5t2 105.5q2 19 -4.5 35.5t-11.5 33.5q5 18 11.5 33.5t4.5 32.5q0 62 -1 122t1 121q0 30 11 58t26 52q-47 15 -75 22.5t-55 11.5t-62 4t-94 -1l5 -4q-44 -6 -66.5 -27.5t-23 -47t22 -47.5t69.5 -30q-11 -5 -23 -9l-24 -8q-46 27 -55.5 59.5
t5 60t46 46.5t66.5 20q67 3 110.5 0.5t73 -7.5t51 -11.5t44.5 -13.5q26 14 50 31.5t54 24.5q69 22 118.5 17t76 -21t29 -35.5t-20.5 -27.5q-24 -15 -51 -20.5t-52 -11.5q-36 -2 -71 0.5t-69 9.5q-7 -26 -10 -52.5t-3 -53t0.5 -53t0.5 -52.5q-2 -50 -1.5 -97.5t0.5 -96.5
q11 8 24 14.5t26 13.5t21.5 17t12.5 26q-1 8 -2 14t-7 18t-20.5 33t-44.5 60l96 44l97 -149q-27 -5 -49 -19.5t-44 -36.5q23 -40 51.5 -91t60 -102.5t62 -108t56.5 -93.5q23 -33 56.5 -41.5t64.5 2.5q21 9 33 20.5t17 30.5zM363 820q-61 25 -100.5 21.5t-63.5 -18t-36 -34
t-17 -27.5q55 -12 112.5 -9.5t106.5 31.5q16 17 -2 36z" />
    <glyph glyph-name="l" unicode="l" horiz-adv-x="233" 
d="M754 746q6 -19 0 -40t-20.5 -36.5t-33 -20t-36.5 9.5q25 9 48 24t23 44q-1 23 -8.5 39t-17 26t-20.5 14.5t-19 4.5q-35 4 -69.5 -1t-68 -15t-65.5 -22t-65 -22q-6 -17 -20.5 -36t-37.5 -26q-22 -7 -43 0.5t-36 26.5q-15 20 -11 44q2 14 17 24.5t44 7.5q18 -3 22.5 -20.5
t5.5 -32.5q-13 2 -25.5 3t-26.5 2v15q8 -2 14.5 -1t11 4.5t4.5 7.5t-6 7q-11 3 -20.5 0t-15.5 -9.5t-8.5 -14.5t2.5 -16q14 -22 29.5 -28t29 -1t24 18t14.5 29q4 18 -1.5 37t-24.5 32q-13 11 -28 14.5t-31 2.5t-31.5 -4.5t-30.5 -8.5v-11q-3 1 -9 2.5t-9 1.5l-1 -11
q-4 0 -8.5 0.5t-6.5 0.5q-12 -22 -25 -42t-23 -42q-8 -29 -10.5 -58t-3.5 -60q-3 -59 -3.5 -116t4.5 -117q4 -5 7.5 -10t8.5 -11q-12 -18 -16.5 -38t-5 -40.5t1 -41t3.5 -40.5q1 -26 15 -42.5t30 -29.5q13 -9 28.5 -12t30.5 -6q-73 -50 -142 -103l-21 13l-5 483v-479
q-25 18 -37 43t-12 60q2 2 3 10t2 12q1 36 1 74t-1 87l-19 48l18 35q1 3 2 20t2.5 40t2.5 50.5t2 51.5t2 41t1 22q1 29 17 60.5t41.5 61.5t57.5 55t64 43q38 18 80 18t77 -24q17 -11 25 -29.5t8 -36.5q36 13 70.5 27t70.5 25q25 9 56.5 12t62.5 -3.5t56 -24t38 -51.5z" />
    <glyph glyph-name="m" unicode="m" horiz-adv-x="553" 
d="M700 -11q5 -2 10.5 -4t9.5 -3q-7 -37 -32 -55.5t-57 -23.5t-66.5 1.5t-62.5 21.5q-39 28 -59 72t-29 90q-5 57 -5 114.5v115.5q-6 10 -12.5 20t-6.5 22l10 18l10 18q0 25 -1.5 50.5t-17.5 46.5q-12 14 -29.5 15.5t-33.5 -3.5q3 -29 4 -58.5t1 -59.5l19 -28
q-6 -8 -10.5 -14.5t-8.5 -14.5q1 -30 -1.5 -64.5t0 -67t14.5 -61t44 -46.5q-27 -18 -51.5 -39.5t-52.5 -39.5q-18 -2 -25.5 12t-14.5 26q-19 35 -22.5 72t-3 76t1 77t-10.5 75q0 16 6.5 32.5t7.5 34.5q-2 16 -2.5 31.5t-1.5 31.5q-9 5 -17 10t-17 12q-13 -3 -27 -1.5
t-27 -1.5q-4 -35 -2.5 -70.5t13.5 -69.5q-13 -37 -13 -75t2 -75q5 -36 23 -70t54 -48q-35 -20 -67 -44.5t-66 -45.5q-12 17 -22 33.5t-19 32.5q-7 18 -13.5 50.5t2.5 90.5q-4 29 -4 55.5t-1 55.5q-5 9 -9.5 18t-6.5 21q12 28 12 59t-3 62q-6 14 -18.5 22t-24.5 16
q30 9 62 26t59 32q26 -23 38 -57q27 12 48 30t47 31q14 2 27 -2.5t24.5 -12t22 -17.5t20.5 -18q26 4 46.5 22t40.5 33q38 -2 62 -19.5t37 -45t16.5 -61.5t0.5 -71l17 -27q-6 -12 -12.5 -24.5t-5.5 -27.5q-1 -15 -0.5 -46t2 -69t5.5 -78.5t10 -76t15 -60t22 -31.5
q19 -8 39.5 -12.5t39 -2t31.5 15t16 41.5zM472 378v-414h4z" />
    <glyph glyph-name="n" unicode="n" horiz-adv-x="385" 
d="M528 -12q-1 0 -3 2q5 -2 10.5 -2.5t11.5 -1.5q-6 -14 -18.5 -22.5t-22.5 -18.5q-46 -17 -97 -10t-90 39q-24 25 -43.5 55t-21.5 67l-38 -8q-29 -22 -59 -43.5t-62 -42.5q-15 19 -27.5 38t-23.5 40q-6 30 -6.5 60t0 60.5t1.5 60.5t-2 60q-2 8 -6.5 15t-7 15t-3 15t5.5 15
q12 21 12 44v45l-38 57q29 11 55.5 28t57.5 22q12 -7 19 -20t13 -25q2 0 6.5 0.5t6.5 0.5q18 13 35 26t36 25q12 3 25.5 1t25.5 -2q7 -53 7 -107q0 7 0.5 18.5t1 25l1 27t0.5 23.5q18 -6 29.5 -17.5t18.5 -27t10 -33t2 -33.5q-2 -26 1 -51t12 -49l-13 -30q-1 -47 -0.5 -94.5
t6.5 -95.5q4 -34 11 -69t24 -67q11 -16 28.5 -26t36.5 -12t38.5 3.5t33.5 19.5zM223 91q6 5 10 10t9 10q-2 24 -5 48.5t-6 48.5q-2 18 -1 36t1 36t-2 35.5t-9 34.5q-5 14 3.5 25.5t14.5 22.5v51q-6 19 -13.5 34t-18.5 31l-59 -11q1 -26 0.5 -52t2.5 -53q2 -9 5 -17
t4.5 -17.5t-0.5 -18t-8 -16.5q-3 -31 -4 -65.5t5 -67t22.5 -60.5t48.5 -45z" />
    <glyph glyph-name="o" unicode="o" horiz-adv-x="361" 
d="M208 86q-10 -7 -20.5 -14t-19.5 -16t-14.5 -19.5t-3.5 -23.5q0 -9 -2 -13q-5 1 -10.5 1.5t-10.5 2.5q-17 14 -32.5 28.5t-27.5 33.5q-4 0 -10.5 1t-11.5 2q-5 15 -9 28.5t-6 29.5l-9 -2q11 47 9.5 92t-0.5 91q0 15 -6 28t-11 28l17 41v20.5t1 18.5q-5 19 -11 38t-19 34
q58 -3 107 25q25 9 50.5 17t50.5 17q19 9 38.5 2.5t38.5 -12.5q-17 -28 -16 -60t5 -62q2 16 1.5 32t-1 31t2 30.5t11.5 29.5q10 -13 19.5 -25.5t14.5 -27.5q6 -28 2.5 -55t-1.5 -55q2 -12 8.5 -22.5t5.5 -22.5q-6 -16 -10.5 -29.5t-7.5 -29.5q2 -35 6.5 -70.5t22.5 -67.5
q-41 -8 -74 -31.5t-67 -43.5zM145 159q7 -22 25.5 -30.5t39.5 -6.5l30 26q-8 8 -16.5 13.5t-7.5 18.5q-3 24 -1 47.5t2 46.5t-4 45.5t-16 44.5q11 17 15.5 35.5t4.5 38t-3.5 39t-6.5 38.5l-48 10l-39 -11q5 -2 9.5 -4.5t10.5 -3.5q1 -19 -1 -37.5t-0.5 -36.5t5.5 -36t18 -32
q-6 -16 -15.5 -31.5t-6.5 -34.5q1 -35 -1.5 -69.5t6.5 -69.5z" />
    <glyph glyph-name="p" unicode="p" horiz-adv-x="386" 
d="M366 129q-2 -2 -4 -5.5t-3 -5.5q-36 -18 -62 -37.5t-44.5 -37.5t-27.5 -29.5l-9 -11.5q-12 16 -29 40.5t-29 42.5q-2 -18 -3.5 -36t-5 -36.5t-9.5 -35.5t-17 -32l-4 -31q-12 -19 -23 -36.5t-26 -33.5q-19 -26 -46 -44t-55 -30q-36 -14 -66.5 -19t-68.5 7q-43 19 -55 46
t-4 51t30 40t49 13q32 -4 48.5 -20t19 -34t-8 -32.5t-31.5 -14.5q-22 3 -28 15.5t-8 28.5l4 9q9 8 14.5 7t14.5 -7q8 -10 -2 -17.5t-15 -9.5q-2 -9 10 -11t20 5q14 22 9.5 38.5t-22.5 25.5q-12 6 -26 4.5t-19 -2.5q-16 -2 -26 -12.5t-14 -23.5t-3 -27.5t9 -24.5
q29 -33 63 -40t64 2.5t53 28.5t32 39q21 40 28.5 103t9 132t-1.5 132t-4 102q1 15 -4 28.5t-8 28.5q10 28 12.5 59.5t-2.5 62.5q-6 18 -17 30t-22 25q19 9 39 13t40 3q3 -22 -0.5 -42t-1.5 -42q6 5 10 11.5t1 14.5q-3 21 -2.5 40t2.5 40q10 3 20 4.5t21 2.5l19 -40
q22 6 41.5 17t39.5 22q18 -2 36.5 -7.5t34 -15.5t26.5 -25t13 -36q-3 -7 -5 -15t3 -17q-3 -52 13 -104q-14 -32 -14.5 -65t-4.5 -67l-25 -7l24 -3q6 -21 8 -43t5 -44zM237 294q1 17 -6.5 33.5t-12.5 32.5q12 29 18 60.5t-8 61.5q-8 19 -26 23.5t-35 8.5q0 -39 -1 -77.5
t12 -75.5q-14 -38 -13 -76.5t5 -76.5q15 -24 33 -44t34 -42v172z" />
    <glyph glyph-name="q" unicode="q" horiz-adv-x="348" 
d="M588 -220q10 -10 3.5 -27.5t-32.5 -30.5q-38 -14 -77.5 -15.5t-78 7t-74 25.5t-65.5 43q-62 -12 -122.5 -24t-122.5 -17q-55 0 -91.5 16.5t-55.5 41t-21 51.5t14 49q14 16 32.5 28t41.5 12q4 -5 8.5 -9t8.5 -9q-12 -4 -25.5 -5.5t-25.5 -7.5q-27 -19 -33 -50.5t10 -59.5
l8 -2q37 -29 84 -33.5t93 0.5q46 6 90.5 16.5t91.5 19.5q-9 13 -16 27t-15 28q-9 26 -12.5 52.5t-4 53.5t0 54.5t-0.5 53.5q-28 -18 -51 -43.5t-52 -44.5q4 5 9.5 11.5t8.5 10.5l-43 28q-15 12 -28 24t-22 27q-2 53 -1 105.5t1 104.5q-1 14 -8 25.5t-13 23.5q14 19 19 40.5
t4 43.5t-6.5 44l-10.5 42q5 3 15 6.5t15 5.5q10 3 19.5 3t20.5 2q35 12 70 25t70 25q8 -2 14.5 -5t13.5 -7v-422l6 420q5 -3 12 -6t13 -6l33 -41q2 -19 1 -39t-0.5 -40.5t4 -39.5t13.5 -37q6 -9 2 -17t-9 -17q-12 -25 -10.5 -53t-0.5 -55q0 -88 -1.5 -173.5t3.5 -173.5
q4 -10 5.5 -22t10.5 -21q34 4 68 6.5t67.5 -1t65 -14.5t59.5 -33zM202 290q2 12 -2.5 22.5t-11.5 20.5q7 21 12 44t4.5 46t-8 43.5t-24.5 37.5l-42 4q6 -21 7.5 -41.5t1.5 -42t2 -42.5t12 -41q-12 -32 -16 -64.5t-3 -65.5v-27.5t2.5 -28.5t8 -27.5t16.5 -22.5q12 -2 21 3
t20 9v173zM424 -270q37 -15 66.5 -11.5t48 15.5t22.5 26t-10 21q-52 22 -107 26.5t-106 -11.5q17 -23 39 -38t47 -28z" />
    <glyph glyph-name="r" unicode="r" horiz-adv-x="370" 
d="M394 613q8 -7 6 -19t-9 -23q-16 -25 -16.5 -40t-0.5 -14l-42 -32q-24 -16 -47.5 -36.5t-42 -44.5t-30.5 -52t-13 -58v-7.5t1 -8.5q6 -37 40 -47q10 -3 21 -2.5t22 2.5q10 2 18 6l14 7q6 5 11 8q-3 -10 -7 -19q-4 -7 -11 -14.5t-18 -10.5q-32 -9 -59 0q-20 7 -34.5 24.5
t-17.5 43.5v18h-2h-2q-1 0 -1 1q8 23 14.5 47t20.5 45q12 17 20.5 33.5t10.5 34.5q-42 26 -92 29q0 -16 -0.5 -33.5t0 -34.5t5.5 -32t17 -29q-13 -16 -18 -34.5t-5 -37t2 -38t2 -38.5q1 -20 11 -37.5t26 -31t36 -20.5t41 -7q-31 -21 -60 -42.5t-60 -42.5h-19.5t-18.5 2
q2 -6 6 -14.5t6 -13.5q-17 8 -25.5 13t-14.5 10.5t-10.5 14t-11.5 24.5q-15 40 -14 82t-1 84q-1 16 0 32.5t0 33t-5 32.5t-15 30q11 19 17 42.5t4.5 47t-12 43.5t-31.5 33l62 30q-5 -59 -9.5 -116.5t-6.5 -116.5q0 -2 2.5 23t5.5 62.5t6.5 78.5t5.5 70q15 8 28 14.5l23 11.5
q22 -27 37 -54q4 10 8.5 19.5t12.5 18.5q16 6 33.5 3.5t33.5 -4.5q22 -4 42 -13t37 -24q8 -6 12.5 -7t9.5 7q13 15 23.5 31t18.5 35q4 12 -10 19t-30 5q-14 -2 -12 -15.5t15 -26.5q-6 1 -12 2.5t-9 3.5q-7 11 -8 22t11 18q15 9 32.5 7.5t31.5 -13.5zM118 110q0 -5 1.5 -3
t1.5 5q-2 18 -1.5 37t-0.5 37.5t-4.5 36.5t-13.5 34q-1 3 -2 -1.5t0 -6.5q9 -16 12 -33.5t4.5 -35t1 -35.5t1.5 -35z" />
    <glyph glyph-name="s" unicode="s" horiz-adv-x="356" 
d="M372 648q11 -11 12.5 -26.5t-3 -32t-12.5 -33t-18 -28.5q-29 -32 -54.5 -64.5t-48.5 -67.5l36 -30q35 -22 51 -58q0 -26 4 -51q9 -12 9.5 -25t-9.5 -25q-2 -19 -4 -36.5t-7 -36.5l-17 7q-11 -22 -27.5 -39.5t-35 -34t-37 -32.5t-34.5 -35q-19 37 -53 64t-73 43
q-20 3 -36.5 -7.5t-25.5 -27t-9.5 -36.5t10.5 -36q7 -13 21.5 -18.5t29.5 -3.5t27.5 11t15.5 25q2 7 -0.5 12.5t-7.5 10.5t-9.5 10t-8.5 10l-2 -50q-5 4 -14.5 9t-15.5 7l15 35h22.5t21.5 -1q5 -12 9.5 -24.5t1.5 -27.5q-1 -16 -14.5 -25l-25.5 -17h-54q-23 15 -33 40t-8 51
q10 27 28 48.5t38 40.5t42 37t40 39q0 2 -1 7.5t-2 10.5q-20 12 -41 22t-34 30q-6 15 -5.5 28.5t0.5 28.5l-18 38l20 37q0 33 -8 64l25 35l123 54q22 -9 42 -20.5t38 -27.5q9 -6 19 -12.5t21 -14.5q25 4 47 26q20 22 30 48t6 57q-2 12 -15 10.5t-19 -10.5q-9 -10 -10 -21
t11 -12h13q-11 -3 -18 -7q-5 -2 -9.5 1.5t-3.5 13.5q0 7 0.5 13.5t8.5 19.5q9 11 21.5 13t21.5 -3zM237 272l-48 30l-68 -104l116 -78v152zM237 418l-116 78l14 -32l2 -113l41 -25zM280 262q0 4 -1.5 4t-1.5 -4q0 -17 2.5 -33.5t2.5 -32.5q0 -5 1.5 -5t1.5 5q0 16 -2.5 32.5
t-2.5 33.5zM108 248q1 20 -2 46t-7 52q3 -25 5 -49t-1 -49q0 -5 2 -5t3 5z" />
    <glyph glyph-name="t" unicode="t" horiz-adv-x="360" 
d="M400 842q21 -7 34.5 -22t19 -34t3 -40t-12.5 -39q-12 -4 -24 -5.5t-24 -4.5l22 32q9 18 10 36t-9 40q-3 11 -14.5 16.5t-27 8.5t-32 2t-29.5 -4q-33 -7 -59.5 -29.5t-44.5 -51.5q-10 -20 -13 -40t-3 -40.5t1.5 -42t1.5 -44.5q10 0 32 -0.5t46 0.5t45.5 4t31.5 10
q0 -15 -6 -32.5t-15.5 -32.5t-22 -28t-25.5 -19h-80q1 -12 2 -27.5t3 -31t6 -30.5t11 -24q-6 -29 -15.5 -58t-4.5 -60q9 -53 16.5 -80t20 -39t32 -16t51.5 -10q-20 -10 -42 -21.5t-43.5 -24.5t-40 -27.5t-33.5 -32.5q-11 0 -21 8q3 42 10 83.5t9 83.5q1 30 -0.5 71t-5 79
t-6 63.5t-2.5 22.5q-4 -29 -2.5 -59t4 -59t5.5 -58.5t3 -59.5q0 -42 -7.5 -82t-11.5 -82l-5.5 5.5t-5.5 8.5q-25 38 -29.5 80t-3 86t1 87.5t-19.5 83.5q15 26 18.5 58t1.5 62h-101q37 32 65.5 65.5t46.5 63.5t28 54.5t13 38.5q5 26 25 55t52 51t75 31.5t95 0.5z" />
    <glyph glyph-name="u" unicode="u" horiz-adv-x="394" 
d="M332 163q1 -12 8.5 -20.5t16 -15.5t16.5 -14t10 -18q-16 -13 -33 -22t-32 -20l-51 -33l-30 25l-16 29q-24 -19 -47 -36t-45 -38q-12 11 -26.5 20.5t-27 20t-22 23.5t-11.5 31q-2 51 0.5 103t-2.5 104q-3 9 -7 18.5t-10 18.5q10 21 16 45t5 48.5t-11.5 45.5t-31.5 36
q30 15 59.5 29t58.5 30q23 -24 27 -53t3 -59.5t1 -60.5t20 -57q-11 -13 -15 -27.5t-6 -29.5t-1.5 -31t0.5 -32q3 -25 1 -52t3 -53q6 -9 14.5 -13t18.5 -5t20 0t18 1q3 46 3 91t-2 91q2 17 -5 31.5t-15 27.5q19 25 21 56.5t-2 61.5q-1 20 -14 33l-25 25q22 9 43 22t44 20
v-342l4 343q20 5 36 2q17 -25 19.5 -53t2 -56.5t0.5 -57.5t16 -54q-11 -21 -15.5 -43t-5 -45t1 -46t2.5 -45z" />
    <glyph glyph-name="v" unicode="v" horiz-adv-x="366" 
d="M503 652q11 -18 5.5 -48.5t-21.5 -50.5l7 -9l-31 -5q-31 -6 -55 5q0 5 -0.5 11.5t-0.5 10.5q12 -4 24.5 -3t25.5 3q28 7 31 35q-1 15 -2 28.5t-10 26.5q-13 16 -26.5 22t-27.5 6t-26.5 -3t-22.5 -6q-15 -3 -26.5 -16.5t-18.5 -32t-9.5 -40t-0.5 -39.5q4 0 9.5 1t9.5 1
q11 -83 16.5 -166t-16.5 -164l-7 1q-12 -57 -51 -100.5t-86 -73.5q-13 -12 -25 -24.5t-27 -21.5q-24 12 -42 25l-5 166v-162q-9 6 -13 11q-11 10 -15.5 21.5t-6.5 24.5t-2 26t-1 25l-6 2q1 38 1 77v78q0 15 -8 28t-11 28q19 28 20.5 59.5t-2.5 62.5q-5 20 -18 32t-31 20
q30 9 58 24.5t57 28.5q14 6 21 -5t13 -21q8 -24 10 -49.5t2.5 -51t2.5 -51t14 -48.5q-18 -51 -16.5 -103.5t-0.5 -105.5q15 -17 32.5 -28t40.5 -11q21 28 30 60.5t10 66.5t-4 68t-13 66q-12 46 -10.5 94t4.5 95q2 35 20.5 60.5t44.5 46.5q20 16 41.5 29t46.5 15
q21 3 35.5 0.5t25 -10t19.5 -18.5t18 -24zM311 559h-4v-343z" />
    <glyph glyph-name="w" unicode="w" horiz-adv-x="507" 
d="M585 678q31 -14 44 -27.5t16.5 -28t1.5 -29t0 -29.5l-21 18q-1 14 -1.5 28t-9.5 26q-8 12 -20 18.5t-25 8.5t-27 0t-25 -6q-31 -16 -46 -48t-20 -63l25 3q7 -68 10 -132q3 -55 1.5 -112t-11.5 -95q-7 0 -16 2q-2 -12 -2.5 -26t-10.5 -27q-22 -31 -48.5 -58t-55.5 -55
q-5 -9 -11.5 -16.5t-13.5 -16.5l-31 11v1q-17 11 -33.5 22.5t-32.5 26.5q-28 -15 -53 -34t-47 -41q-2 2 -3.5 7t-1.5 8q-26 12 -43 28q-9 24 -34 44q-4 58 -2 116t0 116q-5 9 -10.5 18t-11.5 19q12 19 18.5 39.5t6.5 42.5q4 2 12 4t13 3l-24 5q-8 15 -17.5 30.5t-24.5 26.5
q2 4 2 9q22 12 44.5 20.5t47.5 13.5l30 5q6 -7 12 -15t10 -17q4 -18 3 -36t-1.5 -37t1.5 -37.5t8 -36.5q8 -12 4 -25t-10 -26q-3 -42 -3 -84.5v-84.5q-2 -19 9 -30.5t22 -23.5h32q-1 52 -0.5 102.5t5.5 103.5q-1 8 -5.5 16.5t-8 17t-4 17t5.5 17.5q15 32 11 67t-20 66
q-9 1 -16 2.5t-15 3.5q32 14 64 28.5t59 36.5q11 -16 20.5 -31t13.5 -33q5 -18 5.5 -35.5t0.5 -35t1.5 -35t8.5 -34.5q4 -10 3 -20.5t-4.5 -20.5t-6.5 -19.5t-2 -19.5q0 -21 -1.5 -42.5t0.5 -42.5t7.5 -40.5t19.5 -37.5q11 -1 21.5 -1.5t21.5 -0.5q26 108 0 213
q-15 66 -13.5 136t37.5 129q17 29 34.5 41.5t46.5 23.5q15 7 42 8.5t42 -3.5zM288 201q1 36 -1.5 70.5t-5.5 69.5t-4.5 70t1.5 70q0 3 -1.5 5t-2.5 -3q-3 -35 -1.5 -84t4.5 -93.5t7 -75.5t4 -29zM458 411q1 -2 0 5.5t-2.5 18.5t-2.5 23t-1 19q0 5 -2 5t-2 -5
q1 -16 3.5 -32.5t6.5 -33.5zM95 175q3 15 3.5 30t0.5 30q0 5 -1.5 5t-1.5 -5q0 -6 -0.5 -17.5t-0.5 -21.5v-16.5t0 -4.5zM96 550q-1 0 -1 -0.5t-1 -0.5q1 1 2 1z" />
    <glyph glyph-name="x" unicode="x" horiz-adv-x="417" 
d="M329 139q19 -9 40.5 -9.5t40.5 -1.5q-2 -4 -7 -10t-10.5 -12.5t-11 -12t-7.5 -8.5q-13 -16 -24.5 -30.5t-27.5 -26.5l-11 -25q-39 19 -74 46.5t-59 66.5q-5 14 -10.5 26.5t-11.5 27.5q-19 -51 -43 -100.5t-62 -89.5q-21 -22 -47.5 -33t-54.5 -20q-16 -4 -33.5 -4.5
t-34.5 3.5q-14 5 -28 14.5t-22 24.5q-4 4 -6.5 14t-3 21t1 20.5t6.5 14.5l30 -10q-3 -3 -7.5 -7t-8.5 -11q-5 -9 -2 -19.5t10.5 -19.5t18 -15.5t21.5 -6.5q89 2 130 75q30 49 53 101.5t48 104.5q5 11 10 22.5t0 23.5q-10 43 -20.5 86t-29.5 84q-12 27 -32 45t-52 25
q11 5 29 17.5t37 18.5q14 -6 24 -1.5t12 22.5q12 5 24.5 8.5t26.5 -4.5v1q8 -7 12.5 -9.5t10 -15t14 -41t25.5 -89.5q10 22 20.5 45t24 44t30 39t38.5 31q15 12 32 12t35 1q-30 -12 -57.5 -50.5t-49.5 -82.5t-35.5 -81t-16.5 -46q6 -24 13.5 -47t14.5 -46l4 -14t5 -16
q9 -21 22.5 -41t35.5 -29zM170 419v-187h5zM272 135q1 2 0.5 6t-3.5 1q-4 -9 -4.5 -18.5t-0.5 -17.5q0 -5 2 -5t2 5v14.5t4 14.5z" />
    <glyph glyph-name="y" unicode="y" horiz-adv-x="404" 
d="M382 343q-13 -32 -16.5 -65.5t-2.5 -67t2 -67.5t-5 -67q-8 38 -5 75.5t-4 75.5q-7 -39 -9.5 -79t0.5 -77q-1 -41 1.5 -83.5t-10.5 -83.5q-14 -15 -20 -35t-19 -35q-28 -31 -64.5 -51t-78.5 -25q-34 -6 -70 -4t-64 24q-16 12 -22 22.5t-8 19.5t-2.5 18.5t-3.5 19.5
q-39 -19 -63.5 -30t-37.5 -17q-15 -8 -21 -11q-12 -6 -25.5 -7.5t-27.5 -2.5q28 17 61 31q29 13 59 25.5t59 25.5q4 19 16.5 32t29.5 19.5t36.5 4t36.5 -13.5q6 -4 11.5 -13t8.5 -17.5t3 -17.5t-3 -13q-10 -15 -18.5 -21.5t-15.5 -8t-14 -0.5t-11 2q-14 6 -15.5 19.5
t6.5 24.5h-47q0 -20 2 -40t19 -34t40.5 -20.5t47 -5t45.5 11t37 25.5q14 14 26 27.5t17 32.5q11 50 15 101.5t-1 103.5q-19 -15 -39 -29t-39 -33q-12 0 -24 -1t-24 0q-29 18 -44.5 47t-23.5 61q0 3 1.5 31.5t1.5 66t-4.5 73.5t-16.5 54q10 23 16 51t3.5 53.5t-14 43.5
t-36.5 23q24 12 47.5 23.5t45.5 24.5v-334l5 336l24 15q25 -23 30 -52.5t3.5 -60.5t0 -62t16.5 -58q-11 -17 -15 -36.5t-5 -39.5t0 -40t1 -40q1 -13 2.5 -27.5t4 -27.5t8.5 -25t18 -20q14 -3 27.5 -2.5t27.5 0.5q6 48 5.5 95.5t-0.5 95.5q1 18 -5 34.5t-12 32.5
q8 21 13 45.5t3 48t-10.5 45t-28.5 37.5l50 24h26q7 10 15.5 18.5t17.5 16.5q18 -14 25.5 -31t9.5 -36.5t1 -40t-1 -40.5q-1 -22 5 -44t13 -44zM35 -89q-13 -6 -19 -15t-4 -15q19 1 40.5 0.5t46.5 -12.5q-6 -1 -14.5 -3t-14 -5.5t-6 -8.5t6.5 -12q6 -4 14.5 -1t14.5 9.5
t8 16.5t-3 19q-7 27 -28.5 31.5t-41.5 -4.5zM292 240v-331h4z" />
    <glyph glyph-name="z" unicode="z" horiz-adv-x="439" 
d="M426 235q4 -7 5 -15.5t1 -17.5l-2 -16q-4 -25 -18.5 -50.5t-32.5 -49t-38.5 -44.5t-36.5 -37q-7 8 -35 13t-70 5t-93.5 -5t-105.5 -18q46 63 84.5 130t77.5 135q-21 0 -41 -1t-39 -3q10 22 21 43.5t24 43.5q18 0 38 -1t39 -2q15 28 30.5 54.5t27.5 54.5q-29 -3 -58.5 -2
t-59.5 1t-58 -5t-54 -21q22 35 42.5 71.5t42.5 72.5q36 2 73.5 1.5t74.5 -1.5q9 -46 5 -92t-5 -93q0 -2 2 18.5t4 49.5t2 61.5t-4 55.5q32 0 64 1t64 7q-35 -59 -68.5 -116.5t-63.5 -117.5q19 3 38 4.5t38 3.5l-4 -16q-14 -19 -24.5 -38t-21.5 -39q-18 2 -36 2.5t-37 1.5
q-19 -32 -35.5 -65t-37.5 -65q50 -5 99.5 -4.5t98.5 4.5q19 2 38 12t26 29q3 11 5 27t-2 28q-10 24 -40 27q-17 0 -36 -2t-30 -14q-9 -9 -11.5 -20t3.5 -22q5 -12 15.5 -17t17.5 0q8 3 5 16l14 1q0 -10 -3 -15q-2 -4 -4 -7t-7 -5q-12 -6 -26.5 0.5t-21.5 22.5q-6 12 -3.5 27
t12.5 27q12 15 34 18.5t42 4.5q18 -3 33 -11t22 -26zM299 78q-1 10 -2 17q-1 5 -1 10t0 3v-30q0 -4 1.5 -4t1.5 4z" />
    <glyph glyph-name="braceleft" unicode="{" horiz-adv-x="329" 
d="M268 790q-51 0 -71.5 -26t-20.5 -86q-6 -11 -2 -24q0 -1 2 -3l2 -205q1 -51 -17.5 -70.5t-50.5 -27.5q32 -9 46 -35.5t16 -78.5l1 -25q-6 -5 -3 -13q0 -1 3 -3l3 -169q0 -32 3 -65.5t11 -61.5t23.5 -46t41.5 -18v-23q-18 0 -39 7t-39.5 19t-31.5 26.5t-17 29.5
q-3 9 -5 16q1 1 1 3q0 5 -2 10t-4 11q-9 39 -11 74t-1.5 67t3 61.5t3.5 59.5h1q3 2 6 3.5t6 4.5q4 4 -1 8q-2 2 -5 3.5t-6 3.5v7q3 37 -15 62.5t-37 25.5v71q9 0 19 7t18 19t12 28t3 34q-2 41 -4 77.5t-1 71.5q2 -2 6 -0.5t3 6.5q-3 3 -3 7t-1 7q-2 3 -4 3q2 29 7.5 55
t15.5 48q-1 -35 -0.5 -70t-1.5 -70q-2 -29 -5.5 -63t9.5 -62q2 -5 6 -2.5t2 7.5q-6 13 -7.5 29t-0.5 33t3.5 33.5t3.5 31.5q2 38 1 76.5t0 77.5q21 35 55.5 46.5t70.5 11.5v-35v0z" />
    <glyph glyph-name="bar" unicode="|" horiz-adv-x="219" 
d="M136 969q4 -2 4 -5l-8 -404l-1 -1q-2 0 -2 -5v-1q-5 -10 3 -23l-3 -177q-10 -10 -4 -24l3 -2l-11 -694q-1 -7 -11.5 -7t-11.5 10l-2 188q3 0 3 3q0 8 -0.5 14.5t-2.5 15.5l-5 364q7 1 7 6q-2 2 -1 4t-1 6q-2 2 3 4t3 4q-3 10 -11 11l-7 696q-2 5 6 8q4 3 9 2t12 -9
q6 7 11 11.5t13 5.5q1 1 5 -1z" />
    <glyph glyph-name="braceright" unicode="}" horiz-adv-x="331" 
d="M62 790v35q36 0 70.5 -11.5t55.5 -46.5q0 -6 1.5 -13t3.5 -11t3.5 -4.5t1.5 7.5q10 -22 15.5 -48t7.5 -55q-3 0 -4 -3t-1 -7t-3 -7q-1 -5 3 -6.5t6 0.5q1 -35 -1 -71.5t-4 -77.5q-1 -22 5.5 -41.5t18.5 -31.5q1 -7 2 -14.5t1 -14.5q0 -3 3 -3t3 3q0 5 -0.5 11t-1.5 12
q10 -9 21 -9v-71q-19 0 -36.5 -25.5t-15.5 -62.5q-1 -33 2 -66t5 -68.5t0 -74t-12 -83.5q-2 -6 -4 -11t-2 -10q0 -2 1 -3q-2 -7 -5 -16q-4 -15 -17 -29.5t-31.5 -26.5t-39 -19t-39.5 -7v23q26 0 41.5 18t23.5 46t11 61.5t3 65.5l3 169q2 2 2 3q4 8 -2 13l1 25
q1 52 15.5 78.5t46.5 35.5q-32 8 -50.5 27.5t-17.5 70.5l2 205q2 2 2 3q3 13 -2 24q0 60 -20.5 86t-71.5 26zM188 425q1 0 2 6.5t1 14t-1 14t-2 6.5t-1.5 -6.5t-0.5 -14t0.5 -14t1.5 -6.5z" />
    <glyph glyph-name="Cacute" unicode="&#x106;" horiz-adv-x="645" 
d="M560 1170q5 0 2 -3q2 -41 -4.5 -68t-18.5 -45.5t-29 -31t-35 -24.5q-3 3 -5 3q-5 -2 -10 -4.5t-8 -4.5t-2 -4.5t4 -2.5q-23 -17 -45.5 -40.5t-38.5 -62.5q-3 -3 -6 -3q-3 1 -3 4q-2 48 3.5 79t17 52t28 34t34.5 24q16 -1 32 9t27 24q7 5 15 13q4 0 6 1q4 2 7 5
q1 2 0.5 3.5t-0.5 3.5q6 7 12 16t11 21q3 3 6 2zM530 268q20 14 44 10.5t44 -19t30 -40.5t1 -56.5t-40.5 -66.5t-93.5 -70q-22 -13 -46.5 -19t-49.5 -7.5t-50.5 -0.5t-50.5 2q-13 -41 -39.5 -75t-65.5 -54q-15 -7 -32.5 -10t-34.5 0.5t-32 13.5t-23 27q-4 12 -5.5 27.5
t1.5 30t11 26.5t22 17q4 4 15 5t21.5 -3t18 -15t5.5 -33q-25 29 -43 29t-27.5 -14.5t-8 -36.5t16.5 -37q19 -22 48 -20t56 20t46.5 47.5t21.5 61.5q-23 4 -43 12t-39 18l-2 62q-1 23 -1.5 40.5t-0.5 15.5v-115q-22 13 -41.5 30.5t-34.5 37.5q-3 84 -4 149q0 28 -0.5 54.5
t-1 47t-0.5 32.5t0 11v-287q-35 47 -56 105t-31 120l-35 -18q2 60 13 118t38 111q-53 -3 -85 8t-48 27.5t-16.5 36t9.5 35.5t29 24.5t43 1.5q-1 -7 -1.5 -14.5t-0.5 -14.5q-17 17 -31.5 17t-22 -11t-9 -27.5t7.5 -30.5t27.5 -21.5t50.5 0.5q44 19 64.5 39.5t29 33t10.5 10
t9 -29.5q-1 9 -2 21.5t-1 22.5l33 32q27 27 59 47.5t68 32t74 14.5t77 -5l17 20q66 -15 106 -44t60.5 -65.5t24 -77t-5.5 -78t-26 -68t-37 -47.5l-11 49l-1 -53q-19 -9 -43.5 -15.5t-50.5 -10.5t-51 -3t-44 9q-30 12 -47 39t-25 57q-9 -58 -3.5 -119t15.5 -118.5t20 -108
t10 -87.5q52 -28 102.5 -25.5t92 23.5t69 53.5t32.5 62.5t-18 52t-81 22zM309 95q8 11 4.5 42t-11 75t-17.5 95.5t-14.5 101.5t-1.5 95t19 77q13 24 27.5 39.5t29.5 24t28 12t24 3.5q38 -3 54.5 -19.5t18 -36t-8.5 -36.5t-25 -21q-30 -8 -45 -2.5t-19.5 17t-1 25.5
t10.5 22.5t15.5 9t13.5 -14.5q0 -2 1.5 -8t0 -12.5t-7 -8.5t-16.5 5q0 -9 6 -13t13.5 -4.5t14.5 1.5t10 8q15 30 3.5 46t-33 18t-45.5 -9t-34 -35q-14 -45 -7.5 -75.5t25.5 -47t46 -20t54.5 3.5t51 24.5t35.5 43.5t8.5 59t-30.5 71q-8 17 -21.5 28.5t-27.5 23t-25 24.5
t-14 33q-49 6 -94 -16t-75 -59q-32 -35 -53.5 -92t-23.5 -135l34 17q-23 -66 -25 -125t14 -107t46 -86t68 -62z" />
    <glyph glyph-name="cacute" unicode="&#x107;" horiz-adv-x="332" 
d="M212 129q16 0 28 6.5t22 17t18 22.5q9 12 18 22q4 1 11 1q8 1 12 1q-38 -54 -62 -84t-41 -49t-30 -33q-12 -13 -27 -34q-4 15 -14 25t-22.5 18t-26.5 13q-13 6 -25 12q-6 83 -8 165q-2 76 -3 152q-3 -35 -6 -71q-3 -40 -2 -82q-2 -40 3 -78q6 -39 4 -78q-14 5 -26 16
q-11 11 -21 33l-2 203l-10 29l7 29v89q0 9 -2 17t-7 19q46 17 95 42q13 6 26 14q14 9 31 10q16 -3 30.5 -12t28 -18.5t27.5 -18.5t30 -13q10 4 20.5 18.5t19.5 34t12 10.5q3 -7 1 -14l-9 1q0 -6 3 -16q2 -10 -4 -19l-33 -45q-11 -14 -19.5 -27t-19.5 -30q-10 -17 -32 -50
q-18 -29 -19 -58q-1 -28 6 -35q16 -13 34 0q5 22 -2 40q4 0 5 -1q2 0 7 -1q2 -12 3 -24t-8 -24q-23 -17 -47 -1q-9 16 -9.5 30.5t3 29.5t8.5 32q6 19 9 43q-22 29 -49 50q-26 22 -54 40l25 -33l2 -79l7 -28l-9 -27v-146q0 -6 8.5 -14.5t22 -17.5t30 -16t32.5 -8zM245 765
q3 1 4 2.5t3 3.5q1 0 3 2q1 1 2 0.5t3 0.5l1.5 3t2.5 3q0 1 -1 4q8 14 14 29q0 2 3 2q2 -1 3 -1v-1q7 -45 -2 -68.5t-27 -40.5q-5 -6 -9.5 -10t-10.5 -9q0 2 -3 2q-7 -5 -12 -7q-2 -2 -1 -4t3 -2q-15 -14 -29 -32t-23 -48q-2 -2 -3 -2t-1 1t-2 1q-6 33 -4 56t8.5 39.5
t16.5 27t22 19.5q12 1 23 9.5t16 19.5z" />
    <glyph glyph-name="Ccaron" unicode="&#x10c;" horiz-adv-x="645" 
d="M649 1143q5 -7 7.5 -23.5t-3 -35.5t-20.5 -38t-41 -32q-57 -24 -124 -12q-8 -13 -15 -26t-16 -27q-6 -13 -14.5 -25t-9.5 -26q-8 -6 -9 -10q-7 -12 -18.5 -20t-23.5 -14q-7 -5 -12.5 -11.5t-10.5 -13.5l-4 6l-15 -9q2 12 2 23t-5 23q-9 21 -19 45.5t-21.5 45t-24.5 34
t-28 12.5q-12 1 -19.5 -4.5t-12.5 -12.5t-8.5 -13.5t-6.5 -7.5q-1 27 19 50t46.5 36t53.5 12t41 -25l63 -132l57 93q-17 6 -30 14.5t-22 24.5q19 17 36.5 34.5t35.5 34.5q4 -22 17.5 -38.5t33 -25t41.5 -8.5t40 10t29.5 33t10.5 59zM530 268q20 14 44 10.5t44 -19t30 -40.5
t1 -56.5t-40.5 -66.5t-93.5 -70q-22 -13 -46.5 -19t-49.5 -7.5t-50.5 -0.5t-50.5 2q-13 -41 -39.5 -75t-65.5 -54q-15 -7 -32.5 -10t-34.5 0.5t-32 13.5t-23 27q-4 12 -5.5 27.5t1.5 30t11 26.5t22 17q4 4 15 5t21.5 -3t18 -15t5.5 -33q-25 29 -43 29t-27.5 -14.5t-8 -36.5
t16.5 -37q19 -22 48 -20t56 20t46.5 47.5t21.5 61.5q-23 4 -43 12t-39 18l-2 62q-1 23 -1.5 40.5t-0.5 15.5v-115q-22 13 -41.5 30.5t-34.5 37.5q-3 84 -4 149q0 28 -0.5 54.5t-1 47t-0.5 32.5t0 11v-287q-35 47 -56 105t-31 120l-35 -18q2 60 13 118t38 111q-53 -3 -85 8
t-48 27.5t-16.5 36t9.5 35.5t29 24.5t43 1.5q-1 -7 -1.5 -14.5t-0.5 -14.5q-17 17 -31.5 17t-22 -11t-9 -27.5t7.5 -30.5t27.5 -21.5t50.5 0.5q44 19 64.5 39.5t29 33t10.5 10t9 -29.5q-1 9 -2 21.5t-1 22.5l33 32q27 27 59 47.5t68 32t74 14.5t77 -5l17 20q66 -15 106 -44
t60.5 -65.5t24 -77t-5.5 -78t-26 -68t-37 -47.5l-11 49l-1 -53q-19 -9 -43.5 -15.5t-50.5 -10.5t-51 -3t-44 9q-30 12 -47 39t-25 57q-9 -58 -3.5 -119t15.5 -118.5t20 -108t10 -87.5q52 -28 102.5 -25.5t92 23.5t69 53.5t32.5 62.5t-18 52t-81 22zM309 95q8 11 4.5 42
t-11 75t-17.5 95.5t-14.5 101.5t-1.5 95t19 77q13 24 27.5 39.5t29.5 24t28 12t24 3.5q38 -3 54.5 -19.5t18 -36t-8.5 -36.5t-25 -21q-30 -8 -45 -2.5t-19.5 17t-1 25.5t10.5 22.5t15.5 9t13.5 -14.5q0 -2 1.5 -8t0 -12.5t-7 -8.5t-16.5 5q0 -9 6 -13t13.5 -4.5t14.5 1.5
t10 8q15 30 3.5 46t-33 18t-45.5 -9t-34 -35q-14 -45 -7.5 -75.5t25.5 -47t46 -20t54.5 3.5t51 24.5t35.5 43.5t8.5 59t-30.5 71q-8 17 -21.5 28.5t-27.5 23t-25 24.5t-14 33q-49 6 -94 -16t-75 -59q-32 -35 -53.5 -92t-23.5 -135l34 17q-23 -66 -25 -125t14 -107t46 -86
t68 -62z" />
    <glyph glyph-name="ccaron" unicode="&#x10d;" horiz-adv-x="332" 
d="M212 129q16 0 28 6.5t22 17t18.5 22.5t17.5 22q4 1 11.5 1.5t11.5 0.5q-38 -54 -62 -84t-41 -49t-29.5 -32.5t-27.5 -34.5q-4 15 -14 25t-22.5 18t-26 13.5t-25.5 11.5q-6 83 -8 165.5t-3 164.5q-3 -42 -6 -83t-2 -83q-2 -40 3.5 -78.5t3.5 -77.5q-14 5 -25.5 16
t-21.5 33l-2 203l-10 29l7 29v89q0 9 -2 17t-7 19q46 17 95 42q13 6 26.5 14.5t30.5 9.5q16 -3 30.5 -12t28 -18.5t27.5 -18.5t30 -13q10 4 20.5 18.5t17 20t9 -4.5t-3.5 -19q-22 -30 -33 -44.5t-19.5 -27.5t-19 -30t-32.5 -50q-18 -29 -19 -57.5t6 -35.5q16 -13 34 0
q5 22 -2 40q4 0 5.5 -0.5t6.5 -1.5q2 -12 3 -24t-8 -24q-23 -17 -47 -1q-9 16 -9.5 30.5t3 29.5t9 33t8.5 42q-22 29 -48.5 50.5t-54.5 39.5l25 -33l2 -79l7 -28l-9 -27v-146q0 -6 8.5 -14.5t22 -17.5t30 -16t32.5 -8zM346 803q4 -4 5.5 -14t-2 -22t-12.5 -25t-26 -20
q-18 -8 -38.5 -9.5t-40.5 0.5q-4 -8 -9 -15.5l-11 -16.5q-3 -9 -8.5 -16t-6.5 -16q-6 -3 -6 -8q-3 -7 -10.5 -11.5t-14.5 -9.5q-5 -3 -8.5 -7t-6.5 -8l-1 3l-11 -5q2 7 2 14t-5 15q-5 14 -11 29t-13 28t-15.5 21t-18.5 7q-8 1 -12 -2t-7.5 -7.5t-5.5 -9t-5 -4.5
q0 17 13 31.5t30 23t33.5 7.5t25.5 -16l40 -83l36 58q-22 10 -35 25q14 11 25 22l22 22q3 -21 20.5 -33t37.5 -12t36 15t14 49z" />
    <glyph glyph-name="Dcroat" unicode="&#x110;" horiz-adv-x="683" 
d="M557 715q53 -50 84 -113t36.5 -130.5t-14.5 -136.5t-65.5 -131t-118 -114.5t-172.5 -86.5q-29 38 -65.5 59.5t-78.5 29.5t-86.5 5.5t-88.5 -15.5q-33 -9 -59 -32.5t-41.5 -53.5t-18.5 -63t9 -63q16 -36 46 -54t62 -21t61.5 8.5t46.5 34.5l11 -15q-17 -29 -50.5 -42.5
t-70.5 -11t-72 23t-55 60.5q-19 46 -14.5 97.5t36.5 91.5q33 44 80.5 71.5t99.5 41.5q25 10 50 12.5t50 1.5q0 46 1 89.5t1 89.5q-38 5 -80.5 2.5t-94.5 -23.5q-6 0 -8 3q-2 1 0 8q55 60 99.5 85.5t83.5 30.5q0 39 -1 77.5t-1 76.5q-23 -11 -50 -19.5t-55 -13.5t-55.5 -4
t-51.5 10q-21 -49 -36 -54q9 58 39 106.5t74.5 83.5t100 58t115 30.5t119 0.5t113.5 -32q10 -5 22.5 -14t22.5 -15v-35v-13t1 -15q2 21 3 32t2 16.5t1 7v3.5q7 -5 14.5 -10t12.5 -10q-1 -9 0 -30t3 -43q1 -12 2.5 -26t2.5 -29v28t-1 26q-1 22 -2 41t1 27zM522 268
q16 17 22 62t5 96t-9 99t-19 71q-36 62 -85 100t-103.5 55t-111 14t-107.5 -23.5t-93 -58.5t-68 -91q50 -8 101.5 9t84.5 46q31 35 73 46.5t84 6.5l-1 -280q27 -6 51 -2q7 -1 14 -1.5t15 -1.5q2 -6 5 -6q5 -1 14 -1q4 1 6 7q15 1 30.5 3.5t32.5 9.5q5 2 7 -2q2 -2 0 -8
q-52 -55 -94 -73.5t-81 -18.5v-175q18 1 33 -2t29.5 -10t28.5 -18t33 -27q16 0 31.5 25t29.5 66.5t23.5 93.5t12 105t-4 102t-25.5 84q-22 37 -44.5 48t-40 6t-29 -19.5t-12 -28t12 -20t42.5 5.5q3 -7 6.5 -10t2 -5.5t-9 -5.5t-26.5 -10q-35 -3 -47.5 13t-9.5 38t20.5 42.5
t42 26.5t53.5 -10t58 -68q9 -19 14.5 -48t8 -62t2.5 -66.5t-0.5 -61t-2.5 -46t-5 -21.5z" />
    <glyph glyph-name="dcroat" unicode="&#x111;" 
d="M271 799q70 41 126 58.5t97 18t65.5 -12t31.5 -29.5t-4 -35t-41 -29q-17 -5 -31 -9t-35.5 -6.5t-54 -2.5t-83.5 4q0 -4 1 -9.5t2 -9.5l-24 -8v-40q19 -5 33 -2q5 -1 10 -1t10 -1q0 -3 3 -3q7 -2 10 -1q4 1 5 4q10 1 21 3t22 7q4 0 5 -2q2 -3 0 -6q-35 -37 -63.5 -50
t-55.5 -14v-226l9 -42l-14 -49v-121q11 -29 33.5 -48.5t46.5 -38.5l-129 -98q-12 22 -24 43t-21 45q-23 -21 -48.5 -43t-44.5 -45l-77 54h-21q-2 63 -1 126t1 126q1 15 -4.5 24.5t-7.5 24.5q14 38 13 77.5t-17 75.5h-15l9 14q4 2 20 6t37 10t45.5 13.5t45.5 13.5t37 11t21 6
q1 17 1 31v26q-26 2 -53.5 0.5t-61.5 -15.5q-3 -3 -5 2q-2 1 0 5q38 43 69.5 61t58.5 21q5 14 12.5 29.5t20.5 38.5q-29 7 -57 12.5t-54 10.5q-49 11 -25 18q27 6 62 -1q35 -8 58.5 -15t29.5 -7zM218 306l-13 49l12 42v156q-20 -9 -39.5 -23t-27.5 -36q-9 -35 -6 -70t15 -69
q-5 -12 -9 -27.5t-5.5 -39.5t-1 -59t2.5 -88q0 -10 10 -17t21 -12q10 -1 20.5 2t20.5 5v187zM268 372q0 3 -2.5 3t-2.5 -3v-66q0 -2 2.5 -2t2.5 2v66zM298 620q2 3 -0.5 3.5t-3.5 -2.5q-9 -18 -9 -39v-43v-92q0 -3 2.5 -3t2.5 3v90q0 22 -0.5 43t8.5 40zM574 817
q3 5 -5.5 15.5t-29 17.5t-51.5 6.5t-73 -17.5q-20 -12 -38.5 -26t-27.5 -36q6 0 36 -4t66 -3.5t71 10.5t52 37z" />
    <glyph glyph-name="Scaron" unicode="&#x160;" horiz-adv-x="623" 
d="M559 117q-44 -59 -112 -91q-67 -32 -141 -27q13 86 -19 132t-103 62q22 -50 23 -111q1 -60 -14 -119q-16 -46 -48.5 -71t-69.5 -33.5t-74 0.5q-36 8 -62 31q-20 20 -31 52.5t-10.5 69t14 75t41.5 70.5t71 54q43 23 103 28q-18 40 -47 74q-27 36 -54 71q-29 36 -54 76
q-24 41 -42 82q-21 56 -14 106t33.5 89.5t67 66.5t86 36.5t91.5 -0.5q45 -8 80 -41h22q16 0 40.5 -3.5t52.5 -11.5q30 -7 61 -22q0 -5 -1 -15v-14q8 -14 33 -22t52.5 -2.5t50.5 28.5q23 24 27 74q14 -42 -1 -76t-46.5 -58.5t-73.5 -36t-84 -7.5t-77 24q-35 21 -51 61
q-5 -23 -21.5 -37t-37.5 -20.5t-44 -3.5q-22 3 -40 15l3 14q26 -8 47 -8q21 1 43 7q23 10 28 33q6 25 4 47q-35 3 -70 -3q-33 -4 -63 -25q-25 -21 -38.5 -48t-13 -55t17.5 -55q16 -27 52 -47q32 -12 51 -13t37 4t41 14t64 16v-23q31 3 62.5 -1.5t61.5 -17t55 -30.5
q26 -19 46 -43q23 -35 35.5 -78t12.5 -86.5t-13.5 -84.5t-39.5 -72zM463 67q27 20 46.5 53.5t26.5 71.5t-1.5 74t-40.5 61t-89 33q-57 9 -148 -9q3 5 6 14q4 10 6 16q-46 -6 -87 2t-73.5 22.5t-55.5 34.5q-22 20 -32 39q-23 49 -17 105q8 56 40 100q35 46 85 75t108 37
q-22 22 -58 27.5t-74.5 -4t-75 -33.5t-61 -58t-31.5 -79t13 -97q17 -43 42.5 -81.5t53.5 -75t56 -73.5q29 -36 53 -76q63 -1 111.5 -6.5t85.5 -23.5t64 -53t47 -96zM-52 -81q23 -28 55.5 -38t65 -2.5t61 31.5t44 64t13.5 95q-2 56 -31 127q-34 5 -70 -1.5t-68 -24t-55 -47.5
q-25 -28 -33 -68q-7 -34 -6 -71t24 -65zM595 1143q6 -7 8 -23.5t-3.5 -35.5t-20.5 -38t-41 -32q-57 -24 -124 -12q-8 -13 -15 -26t-16 -27q-6 -13 -14.5 -25t-9.5 -26q-8 -6 -9 -10q-7 -12 -18.5 -20t-23.5 -14q-7 -5 -12.5 -11.5t-10.5 -13.5l-3 6l-16 -9q2 12 2 23t-5 23
q-9 21 -19 45.5t-21.5 45t-24.5 34t-28 12.5q-12 1 -19.5 -4.5t-12.5 -12.5t-8 -13.5t-7 -7.5q-1 27 19 50t47 36t53.5 12t40.5 -25l63 -132l57 93q-17 6 -30 14.5t-22 24.5q19 17 36.5 34.5t36.5 34.5q2 -22 16 -38.5t33.5 -25t41.5 -8.5t40 10t29.5 33t10.5 59z" />
    <glyph glyph-name="scaron" unicode="&#x161;" horiz-adv-x="356" 
d="M366 803q4 -4 5.5 -14t-2 -22t-12.5 -25t-26 -20q-19 -8 -39 -9.5t-40 0.5q-4 -8 -9 -15.5l-11 -16.5q-3 -9 -8.5 -16t-6.5 -16q-6 -3 -6 -8q-3 -7 -10.5 -11.5t-14.5 -9.5q-6 -3 -9 -7t-7 -8l-1 3l-11 -5q3 7 3 14t-5 15q-5 14 -11 29t-13.5 28t-15.5 21t-18 7
q-8 1 -12.5 -2t-7.5 -7.5t-5.5 -9t-4.5 -4.5q0 17 13 31.5t30 23t33.5 7.5t24.5 -16l41 -83l35 58q-22 10 -34 25q13 11 24 22l22 22q4 -21 21.5 -33t37 -12t35.5 15t15 49zM372 648q11 -11 12.5 -26.5t-3 -32t-12.5 -33t-18 -28.5q-29 -32 -54.5 -64.5t-48.5 -67.5l36 -30
q35 -22 51 -58q0 -26 4 -51q9 -12 9.5 -25t-9.5 -25q-2 -19 -4 -36.5t-7 -36.5l-17 7q-11 -22 -27.5 -39.5t-35 -34t-37 -32.5t-34.5 -35q-19 37 -53 64t-73 43q-20 3 -36.5 -7.5t-25.5 -27t-9.5 -36.5t10.5 -36q7 -13 21.5 -18.5t29.5 -3.5t27.5 11t15.5 25q2 7 -0.5 12.5
t-7.5 10.5t-9.5 10t-8.5 10l-2 -50q-5 4 -14.5 9t-15.5 7l15 35h22.5t21.5 -1q5 -12 9.5 -24.5t1.5 -27.5q-1 -16 -14.5 -25l-25.5 -17h-54q-23 15 -33 40t-8 51q10 27 28 48.5t38 40.5t42 37t40 39q0 2 -1 7.5t-2 10.5q-20 12 -41 22t-34 30q-6 15 -5.5 28.5t0.5 28.5
l-18 38l20 37q0 33 -8 64l25 35l123 54q22 -9 42 -20.5t38 -27.5q9 -6 19 -12.5t21 -14.5q25 4 47 26q20 22 30 48t6 57q-2 12 -15 10.5t-19 -10.5q-9 -10 -10 -21t11 -12h13q-11 -3 -18 -7q-5 -2 -9.5 1.5t-3.5 13.5q0 7 0.5 13.5t8.5 19.5q9 11 21.5 13t21.5 -3zM237 272
l-48 30l-68 -104l116 -78v152zM237 418l-116 78l14 -32l2 -113l41 -25zM280 262q0 4 -1.5 4t-1.5 -4q0 -17 2.5 -33.5t2.5 -32.5q0 -5 1.5 -5t1.5 5q0 16 -2.5 32.5t-2.5 33.5zM108 248q1 20 -2 46t-7 52q3 -25 5 -49t-1 -49q0 -5 2 -5t3 5z" />
    <glyph glyph-name="Zcaron" unicode="&#x17d;" horiz-adv-x="744" 
d="M675 1130q6 -7 8 -23.5t-3.5 -35.5t-20 -38t-41.5 -32q-57 -24 -124 -12q-8 -13 -15 -26.5t-16 -26.5q-5 -13 -14 -25t-10 -27q-8 -5 -9 -9q-6 -13 -18 -20.5t-24 -14.5q-6 -4 -11.5 -10.5t-11.5 -13.5l-3 6l-16 -9q3 12 3 23t-6 23q-9 21 -18.5 45t-21.5 45t-25 34.5
t-27 12.5q-12 1 -20 -4.5t-13 -13t-8 -13.5t-6 -7q-2 27 18 50t47 36t54 12t40 -25l64 -132l56 93q-17 6 -30 14.5t-22 24.5q19 17 36.5 34t36.5 35q2 -22 16.5 -38.5t33.5 -25.5t41 -9t40 10.5t29.5 33t10.5 59.5zM851 34q21 24 40 27t33 -8.5t21.5 -35t5 -49t-16.5 -51.5
t-43.5 -44.5t-75 -26.5t-111.5 3l66 -32q-42 -10 -75.5 -5.5t-62.5 18t-56 32t-57 38.5l-9 -50q-19 39 -50 73t-68.5 63.5t-79 55.5t-84.5 47q-34 -32 -71.5 -51.5t-73.5 -28t-66.5 -7t-50.5 12.5q-9 5 -15 17t-2.5 27t21 32t58.5 33q102 41 210 37l150 189h-167l95 86h142
l174 220q-72 -19 -145.5 -18.5t-147.5 5.5q-30 3 -59.5 11t-59.5 15t-60 9.5t-60 -6.5q-13 -3 -25 -13t-20 -28t-9.5 -45.5t7.5 -67.5q4 -22 30.5 -40.5t58.5 -24t64 8t48 55.5q-4 -49 -31 -71t-61.5 -22t-71.5 20t-61 54t-28.5 80.5t23.5 99.5q28 50 70.5 77.5t93 37.5
t104.5 6t105 -15.5t95 -28t72 -30.5q15 -6 38 -7.5t47.5 -1t48 4.5t37.5 11l-240 -296h201l-90 -86h-178l-153 -193q59 -13 95.5 -26.5t62 -28t47 -30.5t51.5 -34l4 42q75 -76 136 -115.5t106 -52.5t75.5 -5.5t48.5 25.5t22.5 41.5t-2.5 41.5t-24.5 25.5t-45.5 -6.5zM-12 30
q53 -9 104 3.5t101 64.5q-52 19 -99.5 13.5t-79.5 -21.5t-41.5 -34.5t15.5 -25.5z" />
    <glyph glyph-name="zcaron" unicode="&#x17e;" horiz-adv-x="439" 
d="M450 803q3 -4 5 -14t-1.5 -22t-13 -25t-25.5 -20q-19 -8 -39.5 -9.5t-40.5 0.5q-4 -8 -9 -15.5t-10 -16.5q-4 -9 -9.5 -16t-6.5 -16q-5 -3 -5 -8q-4 -7 -11.5 -11.5t-14.5 -9.5q-5 -3 -8.5 -7t-6.5 -8l-1 3l-11 -5q2 7 2 14t-4 15q-6 14 -12 29t-13 28t-15.5 21t-17.5 7
q-8 1 -12.5 -2t-8 -7.5t-5.5 -9t-4 -4.5q0 17 12.5 31.5t29.5 23t33.5 7.5t25.5 -16l41 -83l35 58q-22 10 -34 25q13 11 24 22l22 22q3 -21 21 -33t37.5 -12t35.5 15t15 49zM426 235q4 -7 5 -15.5t1 -17.5l-2 -16q-4 -25 -18.5 -50.5t-32.5 -49t-38.5 -44.5t-36.5 -37
q-7 8 -35 13t-70 5t-93.5 -5t-105.5 -18q46 63 84.5 130t77.5 135q-21 0 -41 -1t-39 -3q10 22 21 43.5t24 43.5q18 0 38 -1t39 -2q15 28 30.5 54.5t27.5 54.5q-29 -3 -58.5 -2t-59.5 1t-58 -5t-54 -21q22 35 42.5 71.5t42.5 72.5q36 2 73.5 1.5t74.5 -1.5q9 -46 5 -92
t-5 -93q0 -2 2 18.5t4 49.5t2 61.5t-4 55.5q32 0 64 1t64 7q-35 -59 -68.5 -116.5t-63.5 -117.5q19 3 38 4.5t38 3.5l-4 -16q-14 -19 -24.5 -38t-21.5 -39q-18 2 -36 2.5t-37 1.5q-19 -32 -35.5 -65t-37.5 -65q50 -5 99.5 -4.5t98.5 4.5q19 2 38 12t26 29q3 11 5 27t-2 28
q-10 24 -40 27q-17 0 -36 -2t-30 -14q-9 -9 -11.5 -20t3.5 -22q5 -12 15.5 -17t17.5 0q8 3 5 16l14 1q0 -10 -3 -15q-2 -4 -4 -7t-7 -5q-12 -6 -26.5 0.5t-21.5 22.5q-6 12 -3.5 27t12.5 27q12 15 34 18.5t42 4.5q18 -3 33 -11t22 -26zM299 78q-1 10 -2 17q-1 5 -1 10t0 3
v-30q0 -4 1.5 -4t1.5 4z" />
  </font>
</defs>
</svg>
